<svg xmlns="http://www.w3.org/2000/svg" viewBox="0 0 1411 259.68"><defs><style>.cls-1{fill:#ccc;}.cls-2{fill:none;}</style></defs><title>analytic-headline-outline</title><g id="Layer_2" data-name="Layer 2"><g id="Layer_1-2" data-name="Layer 1"><path class="cls-1" d="M72.26,66.28c21.72,0,38.75,4.9,50.61,14.55,11.67,9.51,17.58,24.72,17.58,45.2v77.61H106.32V178.8l-5.52,8.65a35.4,35.4,0,0,1-12.18,11.48c-7.74,4.52-18,6.81-30.37,6.81-10.88,0-20.35-1.81-28.17-5.38S16.36,192,12.2,186A34.55,34.55,0,0,1,6,165.94,35.53,35.53,0,0,1,12,145.69c3.92-5.82,10.33-10.43,19-13.7,9-3.36,21-5.06,35.78-5.06h36.81v-3.26c0-9.61-3.17-17.26-9.41-22.74s-15.44-8.09-27.68-8.09a80.83,80.83,0,0,0-24.11,3.68,71.84,71.84,0,0,0-17.69,8.07L12.42,81.34A88.6,88.6,0,0,1,38.37,70.52a137.37,137.37,0,0,1,33.89-4.24M68.69,184.17a43.49,43.49,0,0,0,21.09-5.09,29.15,29.15,0,0,0,13.61-16l.19-.5v-18H71.17c-10.92,0-18.33,1.78-22.68,5.43a17.74,17.74,0,0,0-6.71,14.11A17.43,17.43,0,0,0,49.5,179c4.8,3.42,11.26,5.15,19.19,5.15M72.26,63.28a140,140,0,0,0-34.63,4.33q-17,4.33-29.13,12.73L23.61,109a66.32,66.32,0,0,1,19.66-9.58,77.87,77.87,0,0,1,23.22-3.54q17.33,0,25.7,7.35t8.39,20.48v.26H66.77q-22.81,0-36.83,5.25T9.46,144A38.26,38.26,0,0,0,3,165.94a37.34,37.34,0,0,0,6.73,21.79q6.74,9.72,19.11,15.36t29.41,5.65q19.52,0,31.88-7.22a38.18,38.18,0,0,0,13.19-12.46v17.58h40.13V126q0-32.29-18.69-47.52T72.26,63.28ZM68.69,181.17q-11,0-17.45-4.6a14.51,14.51,0,0,1-6.46-12.47,14.81,14.81,0,0,1,5.63-11.81q5.64-4.72,20.76-4.73h29.41V162a26.09,26.09,0,0,1-12.24,14.44,40.34,40.34,0,0,1-19.65,4.73Z"/><path class="cls-1" d="M244.6,66.28c11.21,0,21.36,2.15,30.17,6.4A47.09,47.09,0,0,1,295.32,92c5,8.69,7.57,20.07,7.57,33.82v77.87H266V132.07c0-12.13-2.92-21.31-8.68-27.29s-14-9.06-24.28-9.06a42.31,42.31,0,0,0-19.66,4.54,33.16,33.16,0,0,0-13.89,13.55c-3.26,5.85-4.91,13.59-4.91,23v66.84H157.72V68.38h34.95v21.4l5.19-5.53a52.22,52.22,0,0,1,14.3-10.69c9.42-4.83,20.34-7.28,32.44-7.28m0-3q-19,0-33.81,7.61A55.17,55.17,0,0,0,195.67,82.2V65.38H154.72V206.64H197.6V136.8q0-13.4,4.53-21.53a30.11,30.11,0,0,1,12.65-12.35,39.23,39.23,0,0,1,18.28-4.2q14.28,0,22.12,8.14T263,132.07v74.57h42.87V125.77q0-21.52-8-35.32A49.85,49.85,0,0,0,276.07,70q-13.87-6.69-31.47-6.69Z"/><path class="cls-1" d="M376.8,66.28c21.72,0,38.75,4.9,50.61,14.55C439.08,90.34,445,105.55,445,126v77.61H410.86V178.8l-5.52,8.65a35.4,35.4,0,0,1-12.18,11.48c-7.74,4.52-18,6.81-30.37,6.81-10.87,0-20.35-1.81-28.17-5.38S320.9,192,316.74,186a34.55,34.55,0,0,1-6.2-20.08,35.53,35.53,0,0,1,5.95-20.25c3.92-5.82,10.33-10.43,19-13.7,9-3.36,21-5.06,35.78-5.06h36.81v-3.26c0-9.61-3.17-17.26-9.41-22.74S383.27,92.84,371,92.84a80.83,80.83,0,0,0-24.11,3.68,71.84,71.84,0,0,0-17.69,8.07L317,81.34a88.6,88.6,0,0,1,26-10.82,137.37,137.37,0,0,1,33.89-4.24m-3.57,117.89a43.49,43.49,0,0,0,21.09-5.09,29.15,29.15,0,0,0,13.61-16l.19-.5v-18H375.71c-10.92,0-18.33,1.78-22.68,5.43a17.74,17.74,0,0,0-6.71,14.11A17.43,17.43,0,0,0,354,179c4.8,3.42,11.26,5.15,19.19,5.15M376.8,63.28a140,140,0,0,0-34.63,4.33q-17,4.33-29.13,12.73L328.15,109a66.32,66.32,0,0,1,19.66-9.58A77.87,77.87,0,0,1,371,95.84q17.33,0,25.7,7.35t8.39,20.48v.26H371.31q-22.81,0-36.83,5.25T314,144a38.26,38.26,0,0,0-6.46,21.92,37.34,37.34,0,0,0,6.73,21.79q6.74,9.72,19.11,15.36t29.41,5.65q19.51,0,31.88-7.22a38.09,38.09,0,0,0,13.19-12.46v17.58H448V126q0-32.29-18.69-47.52T376.8,63.28Zm-3.57,117.89q-11,0-17.45-4.6a14.51,14.51,0,0,1-6.46-12.47A14.81,14.81,0,0,1,355,152.29q5.64-4.72,20.76-4.73h29.41V162a26.09,26.09,0,0,1-12.24,14.44,40.34,40.34,0,0,1-19.65,4.73Z"/><path class="cls-1" d="M769,3c7.13,0,13,1.85,17.48,5.49A16.59,16.59,0,0,1,793,22.06a18.76,18.76,0,0,1-6.43,14.7c-4.42,4-10.15,5.93-17.51,5.93s-13.1-1.9-17.53-5.82a17.83,17.83,0,0,1-6.4-14,17.85,17.85,0,0,1,6.4-14C755.92,4.9,761.65,3,769,3m0-3q-12.09,0-19.51,6.56a20.87,20.87,0,0,0-7.42,16.28,20.84,20.84,0,0,0,7.42,16.28q7.43,6.57,19.51,6.57T788.54,39A21.81,21.81,0,0,0,796,22.06,19.59,19.59,0,0,0,788.4,6.17Q780.84,0,769,0Z"/><path class="cls-1" d="M499.14,14.82V68.38H534.8l40.82,94,2.74,6.32,2.76-6.31,41.17-94.05h34.37l-1.4,3.15h8.47V37.13h37.15v34.4h36.56V97H700.88v60.24c0,6.73,1.9,12.11,5.65,16s8.89,5.91,15.22,5.91a33.46,33.46,0,0,0,16.12-3.77l6.92,17.74,2.14,5.49-.83.47a45.41,45.41,0,0,1-11.73,4.48A78.05,78.05,0,0,1,716,205.74c-16.59,0-29.61-4-38.71-12s-13.54-19.85-13.54-35.68V97H643.89l-.79,1.78L591.75,214.08l0,0v0c-4.6,11.15-9.9,19.89-15.75,26a49.82,49.82,0,0,1-19.17,12.77,70.72,70.72,0,0,1-23.6,3.77,74.8,74.8,0,0,1-21.67-3.29A53.93,53.93,0,0,1,495.81,246L508.57,222a38.15,38.15,0,0,0,9.44,5,40.83,40.83,0,0,0,14.09,2.54c6.5,0,11.87-1.57,16-4.68s7.49-7.83,10.66-14.64v-.05l.53-1.19.54-1.23-.54-1.22L504.88,85l-5.74-12.83V203.64H462.26V14.82h36.88M787.46,68.38V203.64H750.58V68.38h36.88M502.14,11.82H459.26V206.64h42.88V86.26l54.4,121.55L556,209q-4.39,9.45-9.76,13.52t-14.15,4.07A37.86,37.86,0,0,1,519,224.23a34.59,34.59,0,0,1-11.41-6.83L492,246.81a54,54,0,0,0,18.69,9.45,77.22,77.22,0,0,0,22.54,3.42,73.5,73.5,0,0,0,24.6-3.94,52.64,52.64,0,0,0,20.34-13.52q9.2-9.6,16.35-26.92L645.84,100h14.89v58q0,25.22,14.57,37.94T716,208.74a81.25,81.25,0,0,0,19.1-2.23,48.22,48.22,0,0,0,12.5-4.79v4.92h42.88V65.38H747.58V192.06l-8.24-21.13q-7.15,5.25-17.59,5.25-8.25,0-13.06-5t-4.81-13.91V100h36.56V68.53H703.88V34.13H660.73V65.38h-40.4l-42,95.85-41.6-95.85H502.14V11.82ZM659.88,68.53l.85-1.91v1.91Z"/><path class="cls-1" d="M995.23,66.28a146.69,146.69,0,0,1,30.3,3.22,100.82,100.82,0,0,1,22.85,7.44l-11.86,23.73a81,81,0,0,0-19.35-7,101.41,101.41,0,0,0-21.39-2.43c-10.51,0-18,1.33-22.9,4.06-3.71,2.07-8.14,5.84-8.14,12.07A11.7,11.7,0,0,0,971.23,118a43.25,43.25,0,0,0,13.89,4.41c5.28.87,11.23,1.76,17.67,2.63a171.44,171.44,0,0,1,18.64,3.62,74.24,74.24,0,0,1,16.77,6.43A31.13,31.13,0,0,1,1050,146c2.88,4.57,4.35,10.66,4.35,18.09a32.17,32.17,0,0,1-7.57,21.08c-5.13,6.29-12.7,11.33-22.5,15-10,3.71-22.34,5.59-36.75,5.59A146.87,146.87,0,0,1,952,201.5c-11-2.76-20-6.25-26.63-10.37l-1.76-1.1-1.65,1.27a62.52,62.52,0,0,1-8.26,5.35c-11.14,6-24.39,9.09-39.39,9.09-15.39,0-29.23-3-41.12-9a69.6,69.6,0,0,1-27.95-24.8A65.51,65.51,0,0,1,795.11,136c0-13.52,3.4-25.61,10.1-35.91a71.35,71.35,0,0,1,28-24.7c11.89-6.05,25.72-9.12,41.1-9.12,15,0,28.26,3,39.41,9a54.4,54.4,0,0,1,17.4,14.33l2.54,3.23,2.3-3.4c.55-.81,1.12-1.6,1.72-2.34,5.13-6.46,12.56-11.57,22.08-15.21,9.7-3.7,21.64-5.58,35.49-5.58M874,178.13a41.94,41.94,0,0,0,20.11-4.95,40,40,0,0,0,14.21-13.53l25,13.13,2.75,1.45,1.35-2.8,1.42-3A118,118,0,0,0,961,176.84a106.36,106.36,0,0,0,28.14,3.92c10.51,0,17.86-1.24,22.48-3.79,6.39-3.53,7.73-8.51,7.73-12.08,0-4.45-2.22-8-6.43-10.15a47,47,0,0,0-13.53-4.1c-5.17-.87-11.08-1.75-17.54-2.64a176.12,176.12,0,0,1-18.78-3.61A73.74,73.74,0,0,1,946.2,138a31,31,0,0,1-11.79-10.91c-2.89-4.56-4.35-10.64-4.35-18.09,0-.94,0-1.91.11-2.88l.4-5.39-4.79,2.51-17.47,9.18A40.63,40.63,0,0,0,894.13,99.1,42,42,0,0,0,874,94.15a44.78,44.78,0,0,0-20.91,4.93,38.16,38.16,0,0,0-15.19,14.37c-3.75,6.22-5.66,13.81-5.66,22.56s1.9,16.37,5.64,22.67a37.88,37.88,0,0,0,15.21,14.51A44.6,44.6,0,0,0,874,178.13M995.23,63.28q-21.45,0-36.56,5.77T935.31,85.2c-.66.83-1.27,1.67-1.85,2.53A57.25,57.25,0,0,0,915.11,72.6q-17.46-9.31-40.82-9.32-23.91,0-42.46,9.45a73.94,73.94,0,0,0-29.14,25.73Q792.12,114.75,792.11,136q0,21,10.58,37.55a72.29,72.29,0,0,0,29.14,25.86q18.55,9.32,42.46,9.32,23.37,0,40.82-9.45a65.39,65.39,0,0,0,8.66-5.62q10.4,6.47,27.48,10.74a149.35,149.35,0,0,0,36.28,4.33q22.26,0,37.79-5.78t23.78-15.88a35.36,35.36,0,0,0,8.25-23q0-12.07-4.81-19.69a34,34,0,0,0-12.92-11.95,77.11,77.11,0,0,0-17.46-6.69,172.48,172.48,0,0,0-19-3.68q-9.63-1.31-17.59-2.62a40.38,40.38,0,0,1-12.92-4.07q-5-2.76-5-8,0-5.77,6.6-9.45t21.44-3.68a98,98,0,0,1,20.75,2.36,78.78,78.78,0,0,1,21.3,8.14l14.57-29.14q-10.73-5.78-26.25-9.06a149,149,0,0,0-30.92-3.28ZM874,175.13a41.53,41.53,0,0,1-19.52-4.59,34.71,34.71,0,0,1-14-13.4q-5.24-8.79-5.23-21.13t5.23-21a35.09,35.09,0,0,1,14-13.26A41.53,41.53,0,0,1,874,97.15a38.78,38.78,0,0,1,18.69,4.59q8.52,4.61,14.57,14.58l19.9-10.46c-.08,1-.12,2-.12,3.1q0,12.09,4.81,19.7a33.84,33.84,0,0,0,12.92,11.94,76.38,76.38,0,0,0,17.59,6.7,179.14,179.14,0,0,0,19.1,3.67q9.63,1.32,17.46,2.63a43.63,43.63,0,0,1,12.64,3.81q4.81,2.49,4.81,7.48,0,6-6.18,9.45t-21,3.42A103,103,0,0,1,961.83,174a110.3,110.3,0,0,1-24.32-9.59l-2.77,5.77L907.28,155.7q-6.06,10.25-14.57,14.84A38.78,38.78,0,0,1,874,175.13Z"/><rect class="cls-2" y="3.54" width="1411" height="256"/></g></g></svg>