<svg xmlns="http://www.w3.org/2000/svg" viewBox="0 0 1057.35 262.68"><defs><style>.cls-1{fill:none;stroke:#fff;stroke-miterlimit:10;stroke-width:3px;}</style></defs><title>analytics-txt</title><g id="Layer_2" data-name="Layer 2"><g id="Layer_1-2" data-name="Layer 1"><path class="cls-1" d="M123.26,80q-18.69-15.23-52.5-15.23a140,140,0,0,0-34.63,4.33Q19.09,73.44,7,81.84l15.11,28.62a66.32,66.32,0,0,1,19.66-9.58A77.87,77.87,0,0,1,65,97.34q17.33,0,25.7,7.35t8.39,20.48v.26H65.27q-22.81,0-36.83,5.25T8,145.52A38.26,38.26,0,0,0,1.5,167.44a37.34,37.34,0,0,0,6.73,21.79Q15,199,27.34,204.59t29.41,5.65q19.52,0,31.88-7.22a38.18,38.18,0,0,0,13.19-12.46v17.58H142V127.53Q142,95.24,123.26,80ZM86.84,177.94a40.34,40.34,0,0,1-19.65,4.73q-11,0-17.45-4.6a14.51,14.51,0,0,1-6.46-12.47,14.81,14.81,0,0,1,5.63-11.81q5.64-4.72,20.76-4.73H99.08V163.5A26.09,26.09,0,0,1,86.84,177.94Z"/><path class="cls-1" d="M274.57,71.47q-13.87-6.69-31.47-6.69-19,0-33.81,7.61A55.17,55.17,0,0,0,194.17,83.7V66.88H153.22V208.14H196.1V138.3q0-13.4,4.53-21.53a30.11,30.11,0,0,1,12.65-12.35,39.23,39.23,0,0,1,18.28-4.2q14.28,0,22.12,8.14t7.84,25.21v74.57h42.87V127.27q0-21.52-8-35.32A49.85,49.85,0,0,0,274.57,71.47Z"/><path class="cls-1" d="M427.8,80q-18.69-15.23-52.5-15.23a140,140,0,0,0-34.63,4.33q-17,4.33-29.13,12.73l15.11,28.62a66.32,66.32,0,0,1,19.66-9.58,77.87,77.87,0,0,1,23.22-3.54q17.33,0,25.7,7.35t8.39,20.48v.26H369.81q-22.81,0-36.83,5.25T312.5,145.52A38.26,38.26,0,0,0,306,167.44a37.34,37.34,0,0,0,6.73,21.79q6.74,9.72,19.11,15.36t29.41,5.65q19.51,0,31.88-7.22a38.09,38.09,0,0,0,13.19-12.46v17.58h40.13V127.53Q446.49,95.24,427.8,80Zm-36.42,97.93a40.34,40.34,0,0,1-19.65,4.73q-11,0-17.45-4.6a14.51,14.51,0,0,1-6.46-12.47,14.81,14.81,0,0,1,5.63-11.81q5.64-4.72,20.76-4.73h29.41V163.5A26.09,26.09,0,0,1,391.38,177.94Z"/><path class="cls-1" d="M748,40.62q7.43,6.57,19.51,6.57T787,40.49a21.81,21.81,0,0,0,7.42-16.93A19.59,19.59,0,0,0,786.9,7.67q-7.56-6.16-19.38-6.17Q755.43,1.5,748,8.06a20.87,20.87,0,0,0-7.42,16.28A20.84,20.84,0,0,0,748,40.62Z"/><path class="cls-1" d="M746.08,193.56l-8.24-21.13q-7.15,5.25-17.59,5.25-8.25,0-13.06-5t-4.81-13.91V101.54h36.56V70H702.38V35.63H659.23V66.88h-40.4l-42,95.85-41.6-95.85H500.64V13.32H457.76V208.14h42.88V87.76L555,209.31l-.53,1.19Q550.12,220,544.75,224t-14.15,4.07a37.86,37.86,0,0,1-13.06-2.36,34.59,34.59,0,0,1-11.41-6.83l-15.66,29.41a54,54,0,0,0,18.69,9.45,77.22,77.22,0,0,0,22.54,3.42,73.5,73.5,0,0,0,24.6-3.94,52.56,52.56,0,0,0,20.34-13.52q9.2-9.6,16.35-26.92l51.35-115.26h14.89v58q0,25.22,14.57,37.94t40.68,12.74a81.25,81.25,0,0,0,19.1-2.23,48.22,48.22,0,0,0,12.5-4.79v4.92H789V66.88H746.08ZM658.38,70l.85-1.91V70Z"/><path class="cls-1" d="M1051,145.91A34,34,0,0,0,1038.12,134a77.11,77.11,0,0,0-17.46-6.69,172.48,172.48,0,0,0-19-3.68q-9.63-1.31-17.59-2.62a40.38,40.38,0,0,1-12.92-4.07q-5-2.76-5-8,0-5.77,6.6-9.45t21.44-3.68A98,98,0,0,1,1015,98.12a78.78,78.78,0,0,1,21.3,8.14l14.57-29.14q-10.73-5.78-26.25-9.06a149,149,0,0,0-30.92-3.28q-21.45,0-36.56,5.77T933.81,86.7c-.66.83-1.27,1.67-1.85,2.53A57.25,57.25,0,0,0,913.61,74.1q-17.46-9.31-40.82-9.32-23.91,0-42.46,9.45A73.94,73.94,0,0,0,801.19,100q-10.58,16.29-10.58,37.55,0,21,10.58,37.55a72.29,72.29,0,0,0,29.14,25.86q18.55,9.32,42.46,9.32,23.37,0,40.82-9.45a65.39,65.39,0,0,0,8.66-5.62q10.4,6.47,27.48,10.74A149.35,149.35,0,0,0,986,210.24q22.26,0,37.79-5.78t23.78-15.88a35.36,35.36,0,0,0,8.25-23Q1055.85,153.53,1051,145.91Zm-42.33,29.93q-6.19,3.42-21,3.42a103,103,0,0,1-27.35-3.81A110.3,110.3,0,0,1,936,165.86l-2.77,5.77L905.78,157.2q-6.06,10.25-14.57,14.84a38.78,38.78,0,0,1-18.69,4.59A41.53,41.53,0,0,1,853,172a34.71,34.71,0,0,1-14-13.4q-5.24-8.79-5.23-21.13t5.23-21a35.09,35.09,0,0,1,14-13.26,41.53,41.53,0,0,1,19.52-4.59,38.78,38.78,0,0,1,18.69,4.59q8.52,4.61,14.57,14.58l19.9-10.46c-.08,1-.12,2-.12,3.1q0,12.09,4.81,19.7a33.84,33.84,0,0,0,12.92,11.94,76.38,76.38,0,0,0,17.59,6.7,179.14,179.14,0,0,0,19.1,3.67q9.63,1.32,17.46,2.63a43.63,43.63,0,0,1,12.64,3.81q4.81,2.49,4.81,7.48Q1014.89,172.44,1008.71,175.84Z"/></g></g></svg>