<svg xmlns="http://www.w3.org/2000/svg" viewBox="0 0 1419.1 259.45"><defs><style>.cls-1{fill:none;stroke:#fff;stroke-miterlimit:10;stroke-width:3px;}</style></defs><title>Asset 2</title><g id="Layer_2" data-name="Layer 2"><g id="Layer_1-2" data-name="Layer 1"><path class="cls-1" d="M254.21,73.2Q236,64,212.68,64q-23.07,0-41.12,9.21A71.61,71.61,0,0,0,145.66,95,54.83,54.83,0,0,0,123,73.2Q105.74,64,82.66,64q-23.61,0-41.94,9.34A73,73,0,0,0,12,98.74Q1.5,114.82,1.5,135.82,1.5,156.57,12,172.9a71.4,71.4,0,0,0,28.77,25.54q18.33,9.19,41.94,9.2,23.07,0,40.31-9.33,15-8.16,22.75-21.84a72.69,72.69,0,0,0,25.84,21.84q18,9.33,41.12,9.33,23.34,0,41.53-9.33a72.32,72.32,0,0,0,28.5-25.41Q293,156.82,293,135.82T282.71,98.61A71,71,0,0,0,254.21,73.2Zm-139,82.06q-6,10.13-14.38,14.65a38.24,38.24,0,0,1-18.46,4.54,40.91,40.91,0,0,1-19.27-4.54,34.31,34.31,0,0,1-13.85-13.22q-5.16-8.69-5.15-20.87t5.15-20.75A34.59,34.59,0,0,1,63.12,102a40.91,40.91,0,0,1,19.27-4.54A38.24,38.24,0,0,1,100.85,102q8.4,4.53,14.38,14.39L140.62,103a68.89,68.89,0,0,0-7.74,32.79,68.2,68.2,0,0,0,7.92,32.88Zm129.89,1.3a34,34,0,0,1-13.3,13.35,41.75,41.75,0,0,1-37.87,0,33.61,33.61,0,0,1-13.43-13.35q-5-8.81-5-20.74,0-12.19,5-20.75A34.12,34.12,0,0,1,194,102a39.32,39.32,0,0,1,19-4.54A38.56,38.56,0,0,1,231.82,102a34.53,34.53,0,0,1,13.3,13.09q5,8.57,5,20.75Q250.14,147.75,245.12,156.56Z"/><path class="cls-1" d="M511.94,70.6Q498.52,64,481.14,64,460,64,444,73.71a60.8,60.8,0,0,0-15.37,13.08,43.23,43.23,0,0,0-13.13-13.08Q400.24,64,380.16,64a67.37,67.37,0,0,0-31.76,7.39,49.38,49.38,0,0,0-13.84,10.67v-16H294.11V205.57h42.35v-70q0-12.7,4.07-20.62A27.65,27.65,0,0,1,351.93,103a34,34,0,0,1,16.56-4q13.56,0,20.76,8t7.2,24.9v73.64h42.34v-70q0-12.7,3.94-20.62A26.91,26.91,0,0,1,454,103a34.53,34.53,0,0,1,16.83-4q13,0,20.22,8t7.2,24.9v73.64h42.34V125.7q0-21.26-7.6-34.87A48,48,0,0,0,511.94,70.6Z"/><path class="cls-1" d="M769.54,70.6Q756.1,64,738.73,64q-21.16,0-37.19,9.72a61,61,0,0,0-15.37,13.08A43.23,43.23,0,0,0,673,73.71Q657.85,64,637.76,64A67.34,67.34,0,0,0,606,71.38a49.43,49.43,0,0,0-13.85,10.67v-16H551.71V205.57h42.34v-70q0-12.7,4.08-20.62A27.65,27.65,0,0,1,609.53,103a33.92,33.92,0,0,1,16.55-4q13.57,0,20.77,8t7.19,24.9v73.64h42.35v-70q0-12.7,3.93-20.62A26.87,26.87,0,0,1,711.59,103a34.5,34.5,0,0,1,16.83-4q13,0,20.22,8t7.19,24.9v73.64h42.35V125.7q0-21.26-7.6-34.87A48,48,0,0,0,769.54,70.6Z"/><path class="cls-1" d="M914.35,135.3q0,12.45-4.48,20.74a29.88,29.88,0,0,1-12.08,12.45,35.69,35.69,0,0,1-17.37,4.15q-14.11,0-21.85-8.17t-7.73-25.8V66.06H808.49v78.83q0,21.27,7.87,35.27a49,49,0,0,0,22,20.74q14.11,6.75,32.57,6.74a65.7,65.7,0,0,0,31-7.39A50.12,50.12,0,0,0,916.25,189v16.53h40.18V66.06H914.35Z"/><path class="cls-1" d="M1088.48,70.6Q1074.77,64,1057.4,64q-18.74,0-33.39,7.52a54.31,54.31,0,0,0-14.93,11.17V66.06H968.64V205.57H1011v-69q0-13.22,4.48-21.26A29.76,29.76,0,0,1,1028,103.14,38.68,38.68,0,0,1,1046,99q14.12,0,21.85,8t7.74,24.9v73.64h42.34V125.7q0-21.26-7.87-34.87A49.2,49.2,0,0,0,1088.48,70.6Z"/><path class="cls-1" d="M1131,40.14q7.32,6.48,19.27,6.48T1169.5,40a21.55,21.55,0,0,0,7.33-16.73,19.37,19.37,0,0,0-7.46-15.69q-7.47-6.09-19.14-6.09Q1138.29,1.5,1131,8a20.62,20.62,0,0,0-7.33,16.08A20.59,20.59,0,0,0,1131,40.14Z"/><path class="cls-1" d="M1376.34,66.06l-41.43,94.66-41.09-94.66h-43.43l1.4,3.12h-20.4v-34h-42.62v34H1171.4V66.06h-42.34V205.57h42.34V100.29h17.37V157.6q0,24.89,14.39,37.47t40.17,12.57a80.35,80.35,0,0,0,18.87-2.2,44.61,44.61,0,0,0,15.34-6.61l-11.13-28.53q-7.07,5.19-17.38,5.19c-5.42,0-9.73-1.64-12.89-4.93s-4.75-7.86-4.75-13.74V100.29h34.32l47.64,106.43-.53,1.18q-4.33,9.33-9.63,13.35t-14,4a37.16,37.16,0,0,1-12.89-2.33,34.18,34.18,0,0,1-11.27-6.74l-15.47,29a53.28,53.28,0,0,0,18.46,9.33,76.25,76.25,0,0,0,22.25,3.38,72.52,72.52,0,0,0,24.3-3.89,51.9,51.9,0,0,0,20.09-13.36q9.09-9.47,16.15-26.58l66-148.06Z"/></g></g></svg>