<svg xmlns="http://www.w3.org/2000/svg" viewBox="0 0 1418.29 256.45"><defs><style>.cls-1{fill:none;}.cls-2{fill:#ccc;}</style></defs><title>community-headline-outline</title><g id="Layer_2" data-name="Layer 2"><g id="Layer_1-2" data-name="Layer 1"><rect class="cls-1" y="0.31" width="1411" height="256"/><path class="cls-2" d="M214.18,65.49c15,0,28.53,3,40.18,8.88a68.39,68.39,0,0,1,27.32,24.35c6.53,10.27,9.85,22.24,9.85,35.6s-3.31,25.28-9.84,35.46a69.71,69.71,0,0,1-27.35,24.36c-11.64,6-25.15,9-40.16,9-14.83,0-28.2-3-39.74-9a69.83,69.83,0,0,1-24.79-20.94L147,169.54l-2-3.77a65.45,65.45,0,0,1-7.56-31.45,66.15,66.15,0,0,1,7.39-31.38L146.85,99l2.73-3.76a69.16,69.16,0,0,1,24.84-20.89c11.56-5.89,24.93-8.88,39.76-8.88m0,110.46a42.39,42.39,0,0,0,20.58-4.9,37.12,37.12,0,0,0,14.46-14.5c3.6-6.31,5.42-13.79,5.42-22.23,0-8.63-1.83-16.12-5.44-22.27a37.56,37.56,0,0,0-14.44-14.2,41.74,41.74,0,0,0-20.31-4.91A42.54,42.54,0,0,0,194,97.84a37.25,37.25,0,0,0-14.6,14.21c-3.61,6.14-5.44,13.63-5.44,22.27,0,8.45,1.83,15.93,5.42,22.22A36.69,36.69,0,0,0,194,171.05a41.92,41.92,0,0,0,20.15,4.9M84.16,65.49c14.8,0,27.89,3,38.9,8.85A52.17,52.17,0,0,1,144.54,95l.83,1.48-4.64,2.43-23,12.06a40.07,40.07,0,0,0-14-13.09,41.43,41.43,0,0,0-19.88-4.9,44.12,44.12,0,0,0-20.66,4.88,37.79,37.79,0,0,0-15,14.2c-3.7,6.15-5.58,13.65-5.58,22.3s1.87,16.17,5.57,22.4a37.45,37.45,0,0,0,15,14.35A44.06,44.06,0,0,0,83.89,176a41.47,41.47,0,0,0,19.88-4.89,39.57,39.57,0,0,0,14-13.35l23.11,12.14,4.44,2.34-.74,1.31A53.16,53.16,0,0,1,123,194.17c-11,6-24.08,9-38.88,9-15.2,0-28.86-3-40.59-8.88A68.81,68.81,0,0,1,16,169.78,64.68,64.68,0,0,1,6,134.32C6,121,9.35,109,16,98.87A70.32,70.32,0,0,1,43.59,74.5c11.73-6,25.38-9,40.57-9m65.16,28.87h0m64.86-31.87q-23.07,0-41.12,9.21a71.61,71.61,0,0,0-25.9,21.79A54.83,54.83,0,0,0,124.47,71.7q-17.23-9.21-40.31-9.21-23.61,0-41.94,9.34A73,73,0,0,0,13.45,97.24Q3,113.32,3,134.32q0,20.75,10.45,37.08a71.4,71.4,0,0,0,28.77,25.54q18.33,9.19,41.94,9.2,23.07,0,40.31-9.33,15-8.16,22.75-21.84a72.69,72.69,0,0,0,25.84,21.84q18,9.33,41.12,9.33,23.34,0,41.53-9.33a72.32,72.32,0,0,0,28.5-25.41q10.32-16.08,10.32-37.08T284.21,97.11a71,71,0,0,0-28.5-25.41q-18.18-9.21-41.53-9.21Zm0,110.46a38.76,38.76,0,0,1-18.73-4.54A33.61,33.61,0,0,1,182,155.06q-5-8.81-5-20.74,0-12.19,5-20.75a34.12,34.12,0,0,1,13.43-13.09,39.32,39.32,0,0,1,19-4.54,38.56,38.56,0,0,1,18.87,4.54,34.53,34.53,0,0,1,13.3,13.09q5,8.57,5,20.75,0,11.93-5,20.74a34,34,0,0,1-13.3,13.35A39.13,39.13,0,0,1,214.18,173ZM83.89,173a40.91,40.91,0,0,1-19.27-4.54,34.31,34.31,0,0,1-13.85-13.22q-5.16-8.69-5.15-20.87t5.15-20.75a34.59,34.59,0,0,1,13.85-13.09,40.91,40.91,0,0,1,19.27-4.54,38.24,38.24,0,0,1,18.46,4.54q8.4,4.53,14.38,14.39l25.39-13.34a68.89,68.89,0,0,0-7.74,32.79,68.2,68.2,0,0,0,7.92,32.88l-25.57-13.44q-6,10.13-14.38,14.65A38.24,38.24,0,0,1,83.89,173Z"/><path class="cls-2" d="M482.64,65.49c11.06,0,21,2.12,29.48,6.3a45.27,45.27,0,0,1,19.74,19c4.79,8.59,7.22,19.83,7.22,33.41v76.87H502.74V130.43c0-11.94-2.68-21-8-26.9s-12.93-9-22.46-9a37.57,37.57,0,0,0-18.27,4.38,29.92,29.92,0,0,0-12.51,13.23c-2.82,5.66-4.25,13-4.25,22v67H401V130.43c0-11.94-2.68-21-8-26.9s-13.11-9-23-9a37,37,0,0,0-18,4.38,30.75,30.75,0,0,0-12.63,13.19c-2.92,5.68-4.4,13.08-4.4,22v67H298.61V67.56h34.45V88.32l5.22-5.76a46.71,46.71,0,0,1,13-10,64.73,64.73,0,0,1,30.37-7.05c12.74,0,24.07,3.11,33.67,9.25a40.48,40.48,0,0,1,12.23,12.18l2.21,3.43,2.61-3.14A58.07,58.07,0,0,1,447,74.78c10.14-6.16,22.13-9.29,35.63-9.29m0-3q-21.18,0-37.19,9.72a60.8,60.8,0,0,0-15.37,13.08A43.23,43.23,0,0,0,417,72.21q-15.21-9.72-35.29-9.72a67.37,67.37,0,0,0-31.76,7.39,49.38,49.38,0,0,0-13.84,10.67v-16H295.61V204.07H338v-70q0-12.7,4.07-20.62a27.65,27.65,0,0,1,11.4-11.93,34,34,0,0,1,16.56-4q13.56,0,20.76,8t7.2,24.9v73.64h42.34v-70q0-12.7,3.94-20.62a26.91,26.91,0,0,1,11.26-11.93,34.53,34.53,0,0,1,16.83-4q13,0,20.22,8t7.2,24.9v73.64h42.34V124.2q0-21.26-7.6-34.87a48,48,0,0,0-21-20.23q-13.43-6.6-30.8-6.61Z"/><path class="cls-2" d="M740.23,65.49c11.06,0,21,2.12,29.49,6.3a45.33,45.33,0,0,1,19.74,19c4.79,8.58,7.22,19.83,7.22,33.41v76.87H760.33V130.43c0-11.94-2.67-21-8-26.9s-12.92-9-22.45-9a37.63,37.63,0,0,0-18.28,4.38,30,30,0,0,0-12.5,13.23c-2.82,5.66-4.25,13-4.25,22v67H658.54V130.43c0-11.94-2.67-21-8-26.9s-13.11-9-23-9a37,37,0,0,0-18,4.38A30.72,30.72,0,0,0,597,112.07c-2.92,5.68-4.41,13.08-4.41,22v67H556.21V67.56h34.44V88.32l5.23-5.76a46.56,46.56,0,0,1,13-10,64.73,64.73,0,0,1,30.37-7.05c12.74,0,24.07,3.11,33.67,9.25a40.44,40.44,0,0,1,12.22,12.18l2.22,3.43L690,87.21A57.85,57.85,0,0,1,704.6,74.78c10.15-6.16,22.14-9.29,35.63-9.29m0-3q-21.16,0-37.19,9.72a61,61,0,0,0-15.37,13.08,43.23,43.23,0,0,0-13.13-13.08q-15.19-9.72-35.28-9.72a67.34,67.34,0,0,0-31.76,7.39,49.43,49.43,0,0,0-13.85,10.67v-16H553.21V204.07h42.34v-70q0-12.7,4.08-20.62A27.65,27.65,0,0,1,611,101.51a33.92,33.92,0,0,1,16.55-4q13.57,0,20.77,8t7.19,24.9v73.64h42.35v-70q0-12.7,3.93-20.62a26.87,26.87,0,0,1,11.27-11.93,34.5,34.5,0,0,1,16.83-4q13,0,20.22,8t7.19,24.9v73.64h42.35V124.2q0-21.26-7.6-34.87A48,48,0,0,0,771,69.1q-13.44-6.6-30.81-6.61Z"/><path class="cls-2" d="M954.93,67.56V201.07H920.75V179.62l-5.24,5.93A47.15,47.15,0,0,1,902,196.09a63,63,0,0,1-29.55,7c-11.8,0-22.33-2.17-31.28-6.45a46.14,46.14,0,0,1-20.66-19.51c-5-8.83-7.49-20.19-7.49-33.79V67.56h36.35v69.61c0,12.49,2.87,21.87,8.55,27.86s13.81,9.11,24,9.11a38.73,38.73,0,0,0,18.81-4.52A33,33,0,0,0,914,156c3.21-5.95,4.84-13.41,4.84-22.17V67.56h36.08m3-3H915.85V133.8q0,12.45-4.48,20.74A29.88,29.88,0,0,1,899.29,167a35.69,35.69,0,0,1-17.37,4.15q-14.11,0-21.85-8.17t-7.73-25.8V64.56H810v78.83q0,21.27,7.87,35.27a49,49,0,0,0,22,20.74q14.11,6.75,32.57,6.74a65.7,65.7,0,0,0,31-7.39,50.12,50.12,0,0,0,14.38-11.21v16.53h40.18V64.56Z"/><path class="cls-2" d="M1058.9,65.49c11.07,0,21.09,2.12,29.78,6.31a46.58,46.58,0,0,1,20.28,19c5,8.57,7.47,19.8,7.47,33.37v76.87h-36.34V130.43c0-12-2.89-21.06-8.58-27s-13.8-9-24-9A41.76,41.76,0,0,0,1028.07,99a32.81,32.81,0,0,0-13.73,13.39c-3.22,5.79-4.86,13.43-4.86,22.72v66H973.14V67.56h34.44v21.2l5.19-5.53a51.75,51.75,0,0,1,14.11-10.55c9.3-4.77,20.08-7.19,32-7.19m0-3q-18.74,0-33.39,7.52a54.31,54.31,0,0,0-14.93,11.17V64.56H970.14V204.07h42.34v-69q0-13.22,4.48-21.26a29.76,29.76,0,0,1,12.49-12.19,38.68,38.68,0,0,1,18-4.14q14.12,0,21.85,8t7.74,24.9v73.64h42.34V124.2q0-21.26-7.87-34.87A49.2,49.2,0,0,0,1090,69.1q-13.71-6.6-31.08-6.61Z"/><path class="cls-2" d="M1151.73,3c7,0,12.83,1.82,17.24,5.42a16.33,16.33,0,0,1,6.36,13.36,18.51,18.51,0,0,1-6.34,14.5c-4.35,3.93-10,5.84-17.26,5.84s-12.93-1.88-17.28-5.73a17.58,17.58,0,0,1-6.32-13.83,17.58,17.58,0,0,1,6.32-13.83c4.36-3.86,10-5.73,17.28-5.73m0-3q-11.94,0-19.27,6.48a20.62,20.62,0,0,0-7.33,16.08,20.59,20.59,0,0,0,7.33,16.08q7.32,6.48,19.27,6.48T1171,38.51a21.55,21.55,0,0,0,7.33-16.73,19.37,19.37,0,0,0-7.46-15.69Q1163.4,0,1151.73,0Z"/><path class="cls-2" d="M1229.89,36.71v34h28l-1.4-3.12h36.84l40.3,92.86,2.74,6.31,2.76-6.3,40.64-92.87h33.87L1349.59,211.4l0,0,0,0c-4.54,11-9.77,19.63-15.54,25.64a49,49,0,0,1-18.92,12.61,70,70,0,0,1-23.3,3.72,73.83,73.83,0,0,1-21.38-3.25,53,53,0,0,1-15.48-7.3l12.56-23.58a37.75,37.75,0,0,0,9.29,4.94,40.46,40.46,0,0,0,13.93,2.51c6.43,0,11.74-1.55,15.79-4.63s7.41-7.74,10.54-14.47l0,0v0l.52-1.18.54-1.22-.54-1.22L1270,97.57l-.79-1.78h-39.27v59.53c0,6.66,1.88,12,5.59,15.82s8.8,5.85,15,5.85a33.07,33.07,0,0,0,15.9-3.71l8.93,22.87A43.94,43.94,0,0,1,1263,201a77.09,77.09,0,0,1-18.16,2.12c-16.36,0-29.22-4-38.2-11.83s-13.36-19.6-13.36-35.21V95.79H1169.9V201.07h-36.34V67.56h36.34v3.12h23.37v-34h36.62m3-3h-42.62v34H1172.9V64.56h-42.34V204.07h42.34V98.79h17.37V156.1q0,24.89,14.39,37.47t40.17,12.57a80.35,80.35,0,0,0,18.87-2.2,44.61,44.61,0,0,0,15.34-6.61l-11.13-28.53q-7.07,5.19-17.38,5.19c-5.42,0-9.73-1.64-12.89-4.93s-4.75-7.86-4.75-13.74V98.79h34.32l47.64,106.43-.53,1.18q-4.33,9.33-9.63,13.35t-14,4a37.16,37.16,0,0,1-12.89-2.33,34.18,34.18,0,0,1-11.27-6.74l-15.47,29a53.28,53.28,0,0,0,18.46,9.33,76.25,76.25,0,0,0,22.25,3.38,72.52,72.52,0,0,0,24.3-3.89,51.9,51.9,0,0,0,20.09-13.36q9.09-9.47,16.15-26.58l66-148.06h-40.45l-41.43,94.66-41.09-94.66h-43.43l1.4,3.12h-20.4v-34Zm185.4,30.85Z"/></g></g></svg>