<svg xmlns="http://www.w3.org/2000/svg" viewBox="0 0 1411 173.13"><defs><style>.cls-1{fill:#ccc;}.cls-2{fill:none;}</style></defs><title>event-headline-outline</title><g id="Layer_2" data-name="Layer 2"><g id="Layer_1-2" data-name="Layer 1"><path class="cls-1" d="M80.74,33.32c13.76,0,26.33,2.86,37.37,8.5a65.5,65.5,0,0,1,26.14,23.85c6.37,10.2,9.6,22.68,9.6,37.1,0,1.43-.09,3.13-.26,5q-.14,1.47-.27,2.85H41.64l.88,3.7a37,37,0,0,0,4.7,11.3,38.43,38.43,0,0,0,16.19,14.21c6.71,3.21,14.83,4.84,24.13,4.84a59.75,59.75,0,0,0,21.32-3.58,52.81,52.81,0,0,0,14.93-8.79l18.56,19.23a64.15,64.15,0,0,1-22.18,13.95c-9.76,3.74-21.2,5.64-34,5.64-16.13,0-30.4-3-42.43-9s-21.34-14.2-27.89-24.5S6,115.46,6,102.25s3.19-25.2,9.49-35.58A65.91,65.91,0,0,1,42,42.2c11.38-5.89,24.41-8.88,38.71-8.88M41.38,93h78.84l-.47-3.41A35.62,35.62,0,0,0,101.5,62.88,41.69,41.69,0,0,0,81,58a42.26,42.26,0,0,0-20.6,4.92A35.45,35.45,0,0,0,46.33,76.75a38.55,38.55,0,0,0-4.39,12.81L41.38,93M80.74,30.32q-22.29,0-40.09,9.22A68.46,68.46,0,0,0,12.92,65.12Q3,81.47,3,102.25t10.33,37q10.32,16.23,29.08,25.58t43.77,9.34q19.83,0,35.06-5.84a65.75,65.75,0,0,0,25.28-16.75L124,128.21a50.17,50.17,0,0,1-16.17,10.13,56.48,56.48,0,0,1-20.25,3.38q-13.32,0-22.84-4.55a35.31,35.31,0,0,1-15-13.11,33.67,33.67,0,0,1-4.31-10.39H156c.17-1.73.36-3.59.54-5.58s.27-3.76.27-5.32q0-22.59-10.06-38.69a68.16,68.16,0,0,0-27.32-24.93q-17.25-8.82-38.73-8.83ZM44.91,90a35.12,35.12,0,0,1,4-11.81A32.44,32.44,0,0,1,61.85,65.51,39.19,39.19,0,0,1,81,61a38.46,38.46,0,0,1,19,4.55A32.62,32.62,0,0,1,116.78,90Z" transform="translate(0 -1.04)"/><path class="cls-1" d="M353.65,33.32c13.76,0,26.33,2.86,37.37,8.5a65.47,65.47,0,0,1,26.13,23.85c6.38,10.2,9.61,22.68,9.61,37.1,0,1.43-.09,3.13-.26,5q-.13,1.47-.27,2.85H314.55l.87,3.7a37,37,0,0,0,4.71,11.3,38.37,38.37,0,0,0,16.19,14.21c6.71,3.21,14.83,4.84,24.12,4.84a59.67,59.67,0,0,0,21.32-3.58,52.67,52.67,0,0,0,14.93-8.79l18.56,19.23a64,64,0,0,1-22.18,13.95c-9.76,3.74-21.19,5.64-34,5.64-16.12,0-30.4-3-42.42-9s-21.34-14.2-27.89-24.5-9.86-22.18-9.86-35.39a72.59,72.59,0,0,1,2.69-20l-5.63-2L236.71,169.1H197.14L138.34,35.4h36.91l39.68,93.35,2.71,6.36,2.8-6.32L261.82,35.4h33.95l-12.37,28,5.29,2.79a65.94,65.94,0,0,1,26.24-24c11.39-5.89,24.42-8.88,38.72-8.88M314.29,93h78.84l-.48-3.41a35.64,35.64,0,0,0-18.24-26.75A41.69,41.69,0,0,0,353.92,58a42.32,42.32,0,0,0-20.61,4.92,35.51,35.51,0,0,0-14.08,13.87,38.54,38.54,0,0,0-4.38,12.81L314.29,93m39.36-62.72q-22.29,0-40.1,9.22a68.5,68.5,0,0,0-27.41,25.08L300.37,32.4h-40.5l-42.18,95.18L177.24,32.4H133.75l61.43,139.7h43.49l40-90.66a75.54,75.54,0,0,0-2.8,20.81q0,20.77,10.33,37t29.08,25.58q18.75,9.34,43.76,9.34,19.85,0,35.07-5.84a65.82,65.82,0,0,0,25.28-16.75l-22.56-23.37a50.21,50.21,0,0,1-16.18,10.13,56.48,56.48,0,0,1-20.25,3.38q-13.32,0-22.83-4.55a35.19,35.19,0,0,1-14.95-13.11,33.69,33.69,0,0,1-4.32-10.39h110.6q.27-2.6.55-5.58c.17-2,.27-3.76.27-5.32q0-22.59-10.06-38.69a68.22,68.22,0,0,0-27.32-24.93q-17.26-8.82-38.73-8.83ZM317.81,90a35.34,35.34,0,0,1,4-11.81,32.47,32.47,0,0,1,12.92-12.72A39.19,39.19,0,0,1,353.92,61a38.49,38.49,0,0,1,19,4.55A32.64,32.64,0,0,1,389.68,90Z" transform="translate(0 -1.04)"/><path class="cls-1" d="M636.33,4.5v34h36.15V63.67H636.33v59.61c0,6.67,1.88,12,5.59,15.84S650.73,145,657,145a33.07,33.07,0,0,0,15.92-3.72l.81,2.08,2.51,6.42,3-6.21,4.4-9.15a116.31,116.31,0,0,0,21.91,8.26,105.26,105.26,0,0,0,27.84,3.87c10.4,0,17.67-1.22,22.24-3.74,6.34-3.5,7.67-8.45,7.67-12,0-4.41-2.21-7.89-6.38-10.06a45.9,45.9,0,0,0-13.39-4.06c-5.12-.86-11-1.74-17.35-2.61a175.69,175.69,0,0,1-18.57-3.58,72.92,72.92,0,0,1-16.71-6.35,30.7,30.7,0,0,1-11.65-10.78C676.39,88.87,675,82.86,675,75.5a35.91,35.91,0,0,1,.91-8.15l.8-3.47,1.53-3.21a35,35,0,0,1,4.26-6.8c5.07-6.38,12.42-11.44,21.83-15,9.58-3.66,21.38-5.52,35.08-5.52a145.46,145.46,0,0,1,30,3.18,99.91,99.91,0,0,1,22.56,7.35l-11.7,23.41a79.75,79.75,0,0,0-19.12-6.89A99.7,99.7,0,0,0,739.9,58c-10.4,0-17.81,1.31-22.66,4-6.67,3.71-8.06,8.56-8.06,12a11.58,11.58,0,0,0,6.43,10.53,42.56,42.56,0,0,0,13.74,4.37c5.23.86,11.12,1.74,17.48,2.61A167.58,167.58,0,0,1,765.26,95a73,73,0,0,1,16.58,6.36,30.59,30.59,0,0,1,11.65,10.77c2.85,4.51,4.3,10.53,4.3,17.87a31.79,31.79,0,0,1-7.48,20.83c-5.07,6.21-12.55,11.19-22.23,14.79-9.87,3.66-22.09,5.52-36.33,5.52A145.26,145.26,0,0,1,696.59,167c-4.16-1-8.07-2.2-11.6-3.44l-1.37-.48-1.22.77a43.28,43.28,0,0,1-12.92,5.22,77.47,77.47,0,0,1-18.19,2.12c-16.39,0-29.26-4-38.26-11.85s-13.38-19.62-13.38-35.26V63.67H577.09V38.52h22.56V4.5h36.68M519.73,33.32c11.08,0,21.12,2.13,29.82,6.33A46.47,46.47,0,0,1,569.86,58.7c.52.88,1,1.83,1.53,2.9l1.4,2.87,1.05,3.15a77.71,77.71,0,0,1,3.5,24.5v77h-36.4V98.35c0-12-2.89-21.08-8.59-27s-13.81-9-24-9a41.84,41.84,0,0,0-19.45,4.49,32.82,32.82,0,0,0-13.75,13.4c-3.23,5.8-4.86,13.45-4.86,22.76V169.1H433.84V35.4h34.5V56.62l5.19-5.53a51.71,51.71,0,0,1,14.13-10.57c9.32-4.78,20.11-7.2,32.07-7.2M639.33,1.5H596.65v34H574.09V60.29c-.51-1.06-1.05-2.1-1.63-3.09a49.34,49.34,0,0,0-21.61-20.26q-13.73-6.61-31.12-6.62-18.76,0-33.44,7.53a54.32,54.32,0,0,0-15,11.19V32.4h-40.5V172.1h42.41V103q0-13.25,4.48-21.3a29.72,29.72,0,0,1,12.51-12.2,38.67,38.67,0,0,1,18.07-4.15q14.13,0,21.88,8.05t7.75,24.92V172.1h42.4v-80a80.35,80.35,0,0,0-3.66-25.45h20v57.39q0,24.93,14.41,37.52t40.23,12.59a80,80,0,0,0,18.89-2.2,46.21,46.21,0,0,0,13.81-5.6q5.46,1.92,11.88,3.52a147.06,147.06,0,0,0,35.88,4.28q22,0,37.37-5.71t23.51-15.71A34.93,34.93,0,0,0,800.79,130q0-11.94-4.76-19.47a33.56,33.56,0,0,0-12.77-11.82A76.67,76.67,0,0,0,766,92.12a169.28,169.28,0,0,0-18.76-3.63q-9.51-1.3-17.4-2.6a39.44,39.44,0,0,1-12.77-4A8.6,8.6,0,0,1,712.18,74q0-5.72,6.52-9.35T739.9,61a96.43,96.43,0,0,1,20.52,2.34,77.53,77.53,0,0,1,21.07,8L795.9,42.53q-10.6-5.72-26-9a147.88,147.88,0,0,0-30.58-3.25q-21.21,0-36.15,5.71T680.1,52a38.45,38.45,0,0,0-4.62,7.38V35.52H639.33V1.5ZM657,142q-8.16,0-12.91-4.94t-4.76-13.76V66.67h33.61a38.74,38.74,0,0,0-1,8.83q0,12,4.75,19.48a33.42,33.42,0,0,0,12.78,11.81,74.73,74.73,0,0,0,17.4,6.62,177.26,177.26,0,0,0,18.89,3.64q9.51,1.31,17.26,2.6a42.87,42.87,0,0,1,12.5,3.76q4.76,2.48,4.76,7.4,0,6-6.12,9.35t-20.79,3.37a102,102,0,0,1-27-3.76,109.23,109.23,0,0,1-24.05-9.48l-5.75,12-2.14-5.47Q667.33,142,657,142Z" transform="translate(0 -1.04)"/><rect class="cls-2" width="1411" height="173"/></g></g></svg>