<svg xmlns="http://www.w3.org/2000/svg" viewBox="0 0 800.79 175.67"><defs><style>.cls-1{fill:none;stroke:#fff;stroke-miterlimit:10;stroke-width:3px;}</style></defs><title>event-txt</title><g id="Layer_2" data-name="Layer 2"><g id="Layer_1-2" data-name="Layer 1"><path class="cls-1" d="M118,39.15q-17.25-8.82-38.73-8.83-22.29,0-40.09,9.22A68.46,68.46,0,0,0,11.42,65.12Q1.49,81.47,1.5,102.25t10.33,37q10.32,16.23,29.08,25.58t43.77,9.34q19.83,0,35.06-5.84A65.75,65.75,0,0,0,145,151.58l-22.56-23.37a50.17,50.17,0,0,1-16.17,10.13A56.48,56.48,0,0,1,86,141.72q-13.32,0-22.84-4.55a35.31,35.31,0,0,1-15-13.11,33.67,33.67,0,0,1-4.31-10.39h110.6c.17-1.73.36-3.59.54-5.58s.27-3.76.27-5.32q0-22.59-10.06-38.69A68.16,68.16,0,0,0,118,39.15ZM60.35,65.51A39.19,39.19,0,0,1,79.51,61a38.46,38.46,0,0,1,19,4.55A32.62,32.62,0,0,1,115.28,90H43.41a35.12,35.12,0,0,1,4-11.81A32.44,32.44,0,0,1,60.35,65.51Z"/><path class="cls-1" d="M390.88,39.15q-17.26-8.82-38.73-8.83-22.29,0-40.1,9.22a68.5,68.5,0,0,0-27.41,25.08L298.87,32.4h-40.5l-42.18,95.18L175.74,32.4H132.25l61.43,139.7h43.49l40-90.66a75.54,75.54,0,0,0-2.8,20.81q0,20.77,10.33,37t29.08,25.58q18.75,9.34,43.76,9.34,19.85,0,35.07-5.84a65.82,65.82,0,0,0,25.28-16.75l-22.56-23.37a50.21,50.21,0,0,1-16.18,10.13,56.48,56.48,0,0,1-20.25,3.38q-13.32,0-22.83-4.55a35.19,35.19,0,0,1-14.95-13.11,33.69,33.69,0,0,1-4.32-10.39h110.6q.27-2.6.55-5.58c.17-2,.27-3.76.27-5.32q0-22.59-10.06-38.69A68.22,68.22,0,0,0,390.88,39.15ZM333.26,65.51A39.19,39.19,0,0,1,352.42,61a38.49,38.49,0,0,1,19,4.55A32.64,32.64,0,0,1,388.18,90H316.31a35.34,35.34,0,0,1,4-11.81A32.47,32.47,0,0,1,333.26,65.51Z"/><path class="cls-1" d="M794.53,110.56a33.56,33.56,0,0,0-12.77-11.82,76.67,76.67,0,0,0-17.26-6.62,169.28,169.28,0,0,0-18.76-3.63q-9.51-1.3-17.4-2.6a39.44,39.44,0,0,1-12.77-4A8.6,8.6,0,0,1,710.68,74q0-5.72,6.52-9.35T738.4,61a96.43,96.43,0,0,1,20.52,2.34,77.53,77.53,0,0,1,21.07,8L794.4,42.53q-10.6-5.72-26-9a147.88,147.88,0,0,0-30.58-3.25q-21.21,0-36.15,5.71T678.6,52A38.45,38.45,0,0,0,674,59.38V35.52H637.83V1.5H595.15v34H572.59V60.29c-.51-1.06-1.05-2.1-1.63-3.09a49.34,49.34,0,0,0-21.61-20.26q-13.73-6.61-31.12-6.62-18.76,0-33.44,7.53a54.32,54.32,0,0,0-15,11.19V32.4h-40.5V172.1h42.41V103q0-13.25,4.48-21.3a29.72,29.72,0,0,1,12.51-12.2,38.67,38.67,0,0,1,18.07-4.15q14.13,0,21.88,8.05t7.75,24.92V172.1h42.4v-80a80.35,80.35,0,0,0-3.66-25.45h20v57.39q0,24.93,14.41,37.52t40.23,12.59a80,80,0,0,0,18.89-2.2,46.21,46.21,0,0,0,13.81-5.6q5.46,1.92,11.88,3.52a147.06,147.06,0,0,0,35.88,4.28q22,0,37.37-5.71t23.51-15.71A34.93,34.93,0,0,0,799.29,130Q799.29,118.09,794.53,110.56Zm-41.86,29.6q-6.12,3.38-20.79,3.37a102,102,0,0,1-27-3.76,109.23,109.23,0,0,1-24.05-9.48l-5.75,12-2.14-5.47Q665.83,142,655.5,142q-8.16,0-12.91-4.94t-4.76-13.76V66.67h33.61a38.74,38.74,0,0,0-1,8.83q0,12,4.75,19.48A33.42,33.42,0,0,0,688,106.79a74.73,74.73,0,0,0,17.4,6.62,177.26,177.26,0,0,0,18.89,3.64q9.51,1.31,17.26,2.6a42.87,42.87,0,0,1,12.5,3.76q4.76,2.48,4.76,7.4Q758.79,136.78,752.67,140.16Z"/></g></g></svg>