<svg xmlns="http://www.w3.org/2000/svg" viewBox="0 0 1418.77 644.37"><defs><style>.cls-1{fill:#ccc;}.cls-2{fill:none;}</style></defs><title>headline-outline</title><g id="Layer_2" data-name="Layer 2"><g id="Layer_1-2" data-name="Layer 1"><path class="cls-1" d="M72.26,452c21.72,0,38.75,4.9,50.61,14.55,11.67,9.51,17.58,24.72,17.58,45.2v77.61H106.32V564.54l-5.52,8.65a35.4,35.4,0,0,1-12.18,11.48c-7.74,4.52-18,6.81-30.37,6.81-10.88,0-20.35-1.81-28.17-5.38s-13.72-8.34-17.88-14.34A34.55,34.55,0,0,1,6,551.68,35.53,35.53,0,0,1,12,531.43c3.92-5.82,10.33-10.43,19-13.7,9-3.36,21-5.06,35.78-5.06h36.81v-3.26c0-9.61-3.17-17.26-9.41-22.74s-15.44-8.09-27.68-8.09a80.83,80.83,0,0,0-24.11,3.68,71.84,71.84,0,0,0-17.69,8.07L12.42,467.08a88.6,88.6,0,0,1,25.95-10.82A137.37,137.37,0,0,1,72.26,452M68.69,569.91a43.49,43.49,0,0,0,21.09-5.09,29.15,29.15,0,0,0,13.61-16l.19-.5v-18H71.17c-10.92,0-18.33,1.78-22.68,5.43a17.74,17.74,0,0,0-6.71,14.11,17.43,17.43,0,0,0,7.72,14.92c4.8,3.42,11.26,5.15,19.19,5.15M72.26,449a140,140,0,0,0-34.63,4.33q-17,4.33-29.13,12.74L23.61,494.7a66.32,66.32,0,0,1,19.66-9.58,77.87,77.87,0,0,1,23.22-3.54q17.33,0,25.7,7.35t8.39,20.48v.26H66.77q-22.81,0-36.83,5.25T9.46,529.76A38.26,38.26,0,0,0,3,551.68a37.34,37.34,0,0,0,6.73,21.79q6.74,9.72,19.11,15.36t29.41,5.65q19.52,0,31.88-7.22a38.18,38.18,0,0,0,13.19-12.46v17.58h40.13V511.77q0-32.29-18.69-47.52T72.26,449ZM68.69,566.91q-11,0-17.45-4.6a14.51,14.51,0,0,1-6.46-12.47A14.81,14.81,0,0,1,50.41,538q5.64-4.72,20.76-4.73h29.41v14.44a26.09,26.09,0,0,1-12.24,14.44,40.34,40.34,0,0,1-19.65,4.73Z" transform="translate(0 -1.04)"/><path class="cls-1" d="M244.6,452c11.21,0,21.36,2.15,30.17,6.4a47.09,47.09,0,0,1,20.55,19.27c5,8.69,7.57,20.07,7.57,33.82v77.87H266V517.81c0-12.13-2.92-21.31-8.68-27.29s-14-9.06-24.28-9.06A42.31,42.31,0,0,0,213.4,486a33.16,33.16,0,0,0-13.89,13.55c-3.26,5.85-4.91,13.59-4.91,23v66.84H157.72V454.12h34.95v21.4l5.19-5.53a52.22,52.22,0,0,1,14.3-10.69c9.42-4.83,20.34-7.28,32.44-7.28m0-3q-19,0-33.81,7.61a55.17,55.17,0,0,0-15.12,11.31V451.12H154.72V592.38H197.6V522.54q0-13.39,4.53-21.53a30,30,0,0,1,12.65-12.34,39.12,39.12,0,0,1,18.28-4.21q14.28,0,22.12,8.14T263,517.81v74.57h42.87V511.51q0-21.52-8-35.32a49.85,49.85,0,0,0-21.85-20.48Q262.2,449,244.6,449Z" transform="translate(0 -1.04)"/><path class="cls-1" d="M376.8,452c21.72,0,38.75,4.9,50.61,14.55,11.67,9.51,17.58,24.72,17.58,45.2v77.61H410.86V564.54l-5.52,8.65a35.4,35.4,0,0,1-12.18,11.48c-7.74,4.52-18,6.81-30.37,6.81-10.87,0-20.35-1.81-28.17-5.38s-13.72-8.34-17.88-14.34a34.55,34.55,0,0,1-6.2-20.08,35.53,35.53,0,0,1,5.95-20.25c3.92-5.82,10.33-10.43,19-13.7,9-3.36,21-5.06,35.78-5.06h36.81v-3.26c0-9.61-3.17-17.26-9.41-22.74s-15.44-8.09-27.68-8.09a80.83,80.83,0,0,0-24.11,3.68,71.84,71.84,0,0,0-17.69,8.07L317,467.08a88.6,88.6,0,0,1,26-10.82A137.37,137.37,0,0,1,376.8,452m-3.57,117.89a43.49,43.49,0,0,0,21.09-5.09,29.15,29.15,0,0,0,13.61-16l.19-.5v-18H375.71c-10.92,0-18.33,1.78-22.68,5.43a17.74,17.74,0,0,0-6.71,14.11A17.43,17.43,0,0,0,354,564.76c4.8,3.42,11.26,5.15,19.19,5.15M376.8,449a140,140,0,0,0-34.63,4.33q-17,4.33-29.13,12.74l15.11,28.61a66.32,66.32,0,0,1,19.66-9.58A77.87,77.87,0,0,1,371,481.58q17.33,0,25.7,7.35t8.39,20.48v.26H371.31q-22.81,0-36.83,5.25T314,529.76a38.26,38.26,0,0,0-6.46,21.92,37.34,37.34,0,0,0,6.73,21.79q6.74,9.72,19.11,15.36t29.41,5.65q19.51,0,31.88-7.22a38.09,38.09,0,0,0,13.19-12.46v17.58H448V511.77q0-32.29-18.69-47.52T376.8,449Zm-3.57,117.89q-11,0-17.45-4.6a14.51,14.51,0,0,1-6.46-12.47A14.81,14.81,0,0,1,355,538q5.64-4.72,20.76-4.73h29.41v14.44a26.09,26.09,0,0,1-12.24,14.44,40.34,40.34,0,0,1-19.65,4.73Z" transform="translate(0 -1.04)"/><path class="cls-1" d="M769,388.74c7.13,0,13,1.85,17.48,5.49A16.59,16.59,0,0,1,793,407.8a18.76,18.76,0,0,1-6.43,14.7c-4.42,4-10.15,5.93-17.51,5.93s-13.1-1.9-17.53-5.82a18.58,18.58,0,0,1,0-28.06c4.43-3.91,10.16-5.81,17.53-5.81m0-3q-12.09,0-19.51,6.56a21.57,21.57,0,0,0,0,32.56q7.43,6.57,19.51,6.57t19.52-6.7A21.81,21.81,0,0,0,796,407.8a19.59,19.59,0,0,0-7.56-15.89q-7.56-6.17-19.38-6.17Z" transform="translate(0 -1.04)"/><path class="cls-1" d="M499.14,400.56v53.56H534.8l40.82,94,2.74,6.32,2.76-6.31,41.17-94h34.37l-1.4,3.15h8.47v-34.4h37.15v34.4h36.56v25.51H700.88V543c0,6.73,1.9,12.11,5.65,16s8.89,5.91,15.22,5.91a33.46,33.46,0,0,0,16.12-3.77l6.92,17.74,2.14,5.49-.83.47a45.41,45.41,0,0,1-11.73,4.48A78.05,78.05,0,0,1,716,591.48c-16.59,0-29.61-4-38.71-12s-13.54-19.86-13.54-35.69v-61H643.89l-.79,1.78L591.75,599.82l0,0v0c-4.6,11.15-9.9,19.89-15.75,26a49.82,49.82,0,0,1-19.17,12.77,70.72,70.72,0,0,1-23.6,3.77,74.8,74.8,0,0,1-21.67-3.29,53.93,53.93,0,0,1-15.72-7.42l12.76-23.94a38.45,38.45,0,0,0,9.44,5,40.83,40.83,0,0,0,14.09,2.54c6.5,0,11.87-1.57,16-4.68s7.49-7.83,10.66-14.64v0l.53-1.19.54-1.23-.54-1.22-54.4-121.54L499.14,458V589.38H462.26V400.56h36.88m288.32,53.56V589.38H750.58V454.12h36.88M502.14,397.56H459.26V592.38h42.88V472l54.4,121.55-.53,1.19q-4.39,9.45-9.76,13.52t-14.15,4.07A37.62,37.62,0,0,1,519,610a34.59,34.59,0,0,1-11.41-6.83L492,632.55A54,54,0,0,0,510.66,642a77.22,77.22,0,0,0,22.54,3.42,73.5,73.5,0,0,0,24.6-3.94A52.56,52.56,0,0,0,578.14,628q9.2-9.6,16.35-26.92l51.35-115.26h14.89v58q0,25.22,14.57,37.94T716,594.48a81.25,81.25,0,0,0,19.1-2.23,48.22,48.22,0,0,0,12.5-4.79v4.92h42.88V451.12H747.58V577.8l-8.24-21.13q-7.15,5.25-17.59,5.25-8.25,0-13.06-5T703.88,543V485.78h36.56V454.27H703.88v-34.4H660.73v31.25h-40.4l-42,95.85-41.6-95.85H502.14V397.56Zm157.74,56.71.85-1.91v1.91Z" transform="translate(0 -1.04)"/><path class="cls-1" d="M995.23,452a146.69,146.69,0,0,1,30.3,3.22,100.82,100.82,0,0,1,22.85,7.44l-11.86,23.73a81,81,0,0,0-19.35-7A101.41,101.41,0,0,0,995.78,477c-10.51,0-18,1.33-22.9,4.06-3.71,2.07-8.14,5.84-8.14,12.07a11.7,11.7,0,0,0,6.49,10.63,43.25,43.25,0,0,0,13.89,4.41c5.29.87,11.23,1.76,17.67,2.63a171.44,171.44,0,0,1,18.64,3.62,74.24,74.24,0,0,1,16.77,6.43,31.13,31.13,0,0,1,11.8,10.9c2.88,4.57,4.35,10.66,4.35,18.09a32.17,32.17,0,0,1-7.57,21.08c-5.13,6.29-12.7,11.33-22.5,15-10,3.71-22.34,5.59-36.75,5.59A146.87,146.87,0,0,1,952,587.24c-11-2.76-20-6.25-26.63-10.37l-1.76-1.1L921.94,577a62.52,62.52,0,0,1-8.26,5.35c-11.14,6-24.39,9.09-39.39,9.09-15.39,0-29.23-3-41.12-9a69.6,69.6,0,0,1-27.95-24.8,65.51,65.51,0,0,1-10.11-35.93c0-13.52,3.4-25.61,10.1-35.91a71.35,71.35,0,0,1,28-24.7c11.89-6.05,25.71-9.12,41.1-9.12,15,0,28.26,3,39.41,9a54.4,54.4,0,0,1,17.4,14.33l2.54,3.23,2.3-3.4c.55-.81,1.13-1.6,1.72-2.34,5.13-6.46,12.56-11.57,22.08-15.21,9.7-3.7,21.64-5.58,35.49-5.58M874,563.87a41.94,41.94,0,0,0,20.11-5,40,40,0,0,0,14.21-13.53l25,13.13,2.75,1.45,1.35-2.8,1.42-2.95A118,118,0,0,0,961,562.58a106.36,106.36,0,0,0,28.14,3.92c10.51,0,17.86-1.24,22.48-3.79,6.39-3.53,7.73-8.51,7.73-12.08,0-4.45-2.22-8-6.43-10.15a47,47,0,0,0-13.53-4.1c-5.17-.87-11.08-1.75-17.54-2.64a177.08,177.08,0,0,1-18.78-3.61,73.49,73.49,0,0,1-16.9-6.43,30.93,30.93,0,0,1-11.8-10.91c-2.89-4.56-4.35-10.64-4.35-18.09,0-.93,0-1.9.11-2.88l.4-5.39-4.79,2.51-17.47,9.18a40.63,40.63,0,0,0-14.18-13.28A42,42,0,0,0,874,479.89a44.78,44.78,0,0,0-20.91,4.93,38.16,38.16,0,0,0-15.19,14.37c-3.75,6.22-5.66,13.81-5.66,22.56s1.9,16.37,5.64,22.67a37.88,37.88,0,0,0,15.21,14.51A44.6,44.6,0,0,0,874,563.87M995.23,449q-21.45,0-36.56,5.77t-23.36,16.15c-.66.83-1.27,1.67-1.85,2.53a57.25,57.25,0,0,0-18.35-15.13Q897.65,449,874.29,449q-23.91,0-42.46,9.45a73.94,73.94,0,0,0-29.14,25.73q-10.58,16.29-10.58,37.55,0,21,10.58,37.55a72.29,72.29,0,0,0,29.14,25.86q18.55,9.32,42.46,9.32,23.37,0,40.82-9.45a66.36,66.36,0,0,0,8.66-5.61q10.4,6.45,27.48,10.73a149.35,149.35,0,0,0,36.28,4.33q22.26,0,37.79-5.78t23.78-15.88a35.36,35.36,0,0,0,8.25-23q0-12.08-4.81-19.69a34,34,0,0,0-12.92-11.95,77.11,77.11,0,0,0-17.46-6.69,172.48,172.48,0,0,0-19-3.68q-9.63-1.31-17.59-2.62a40.38,40.38,0,0,1-12.92-4.07q-5-2.76-5-8,0-5.78,6.6-9.45T995.78,480a98,98,0,0,1,20.75,2.36,78.78,78.78,0,0,1,21.3,8.14l14.57-29.14q-10.73-5.78-26.25-9.06A149,149,0,0,0,995.23,449ZM874,560.87a41.53,41.53,0,0,1-19.52-4.59,34.75,34.75,0,0,1-14-13.39q-5.24-8.8-5.23-21.14t5.23-21a35.09,35.09,0,0,1,14-13.26A41.53,41.53,0,0,1,874,482.89a38.78,38.78,0,0,1,18.69,4.59q8.52,4.61,14.57,14.58l19.9-10.46c-.08,1-.12,2.06-.12,3.1q0,12.09,4.81,19.7a33.84,33.84,0,0,0,12.92,11.94,76.38,76.38,0,0,0,17.59,6.7,179.14,179.14,0,0,0,19.1,3.67q9.63,1.32,17.46,2.63a43.63,43.63,0,0,1,12.64,3.81q4.81,2.49,4.81,7.48,0,6-6.18,9.45t-21,3.42a103,103,0,0,1-27.35-3.81,110.8,110.8,0,0,1-24.32-9.58l-2.77,5.76-27.46-14.43q-6.06,10.24-14.57,14.84A38.78,38.78,0,0,1,874,560.87Z" transform="translate(0 -1.04)"/><rect class="cls-2" width="1418.77" height="644.37"/><path class="cls-1" d="M64.06,285.62V319h35.5v24.6H64.06V402.2c0,6.56,1.85,11.81,5.51,15.59s8.67,5.77,14.84,5.77a32.52,32.52,0,0,0,15.6-3.63l8.74,22.39a42.87,42.87,0,0,1-12.1,4.77,76.16,76.16,0,0,1-17.85,2.08c-16.08,0-28.71-3.91-37.53-11.62S28.15,418.31,28.15,403V343.62H6V319H28.15v-33.4H64.06m3-3H25.15V316H3v30.6H25.15V403q0,24.46,14.15,36.84t39.5,12.36A78.69,78.69,0,0,0,97.35,450a43.67,43.67,0,0,0,15.08-6.51l-10.94-28q-6.94,5.1-17.08,5.1-8,0-12.68-4.85T67.06,402.2V346.62h35.5V316H67.06v-33.4Z" transform="translate(0 -1.04)"/><path class="cls-1" d="M415.31,264v70.46l5.07-4.87A51.25,51.25,0,0,1,432.49,321c9.14-4.69,19.72-7.07,31.46-7.07a66.76,66.76,0,0,1,29.25,6.21,45.62,45.62,0,0,1,19.93,18.68c4.87,8.43,7.34,19.46,7.34,32.79v75.53H484.83V377.72c0-11.79-2.84-20.73-8.45-26.55s-13.59-8.83-23.64-8.83a41.16,41.16,0,0,0-19.13,4.42A32.19,32.19,0,0,0,420.09,360c-3.18,5.69-4.78,13.22-4.78,22.36v64.82H379.67V264h35.64m-99.23,50c14.55,0,27.41,2.93,38.22,8.7a51.68,51.68,0,0,1,19.83,18.1l2.19,3.5-1.05.55-26.12,13.72a39.51,39.51,0,0,0-13.76-12.86,40.8,40.8,0,0,0-19.57-4.82,43.41,43.41,0,0,0-20.34,4.81,37.12,37.12,0,0,0-14.8,14c-3.65,6.06-5.5,13.44-5.5,21.95s1.85,15.92,5.49,22.05a36.8,36.8,0,0,0,14.81,14.14,43.46,43.46,0,0,0,20.34,4.8,40.75,40.75,0,0,0,19.57-4.82,38.93,38.93,0,0,0,13.79-13.1l26.09,13.71,1,.54-2.17,3.41a52.7,52.7,0,0,1-19.84,18.08c-10.81,5.85-23.66,8.81-38.21,8.81-14.94,0-28.36-2.93-39.89-8.73a67.49,67.49,0,0,1-27.11-24.05,61.37,61.37,0,0,1-9-24.07l-.39-2.55H132.42l.88,3.69a36.24,36.24,0,0,0,4.62,11.11,37.76,37.76,0,0,0,15.92,14c6.6,3.15,14.58,4.75,23.72,4.75a58.61,58.61,0,0,0,20.95-3.51,51.82,51.82,0,0,0,14.64-8.61L231.3,430a63,63,0,0,1-21.72,13.65c-9.58,3.67-20.8,5.53-33.36,5.53-15.82,0-29.83-3-41.63-8.86s-20.94-13.93-27.37-24-9.67-21.76-9.67-34.72,3.13-24.73,9.31-34.91a64.58,64.58,0,0,1,26-24c11.17-5.79,23.95-8.72,38-8.72,13.5,0,25.84,2.81,36.66,8.34a64.25,64.25,0,0,1,25.65,23.4,57.74,57.74,0,0,1,5.19,10.65l2.66,7.23,2.93-7.12a59,59,0,0,1,5.09-9.7,69.1,69.1,0,0,1,27.14-24c11.53-5.87,24.94-8.85,39.87-8.85M132.17,372.56h77.54l-.47-3.41a35,35,0,0,0-18-26.3A40.88,40.88,0,0,0,171.15,338a41.65,41.65,0,0,0-20.26,4.83,34.88,34.88,0,0,0-13.84,13.65,37.73,37.73,0,0,0-4.31,12.6l-.57,3.47M418.31,261H376.67v78.17A54.37,54.37,0,0,0,355.72,320q-17-9-39.64-9.05-23.22,0-41.24,9.18a71.82,71.82,0,0,0-28.29,25,61.49,61.49,0,0,0-5.35,10.19,60.27,60.27,0,0,0-5.46-11.21,66.88,66.88,0,0,0-26.82-24.48q-16.95-8.67-38-8.67-21.9,0-39.37,9.05a67.29,67.29,0,0,0-27.23,25.12q-9.75,16.07-9.74,36.46t10.14,36.33q10.14,15.94,28.56,25.11t43,9.18q19.49,0,34.43-5.73A64.75,64.75,0,0,0,235.48,430L213.32,407A49.18,49.18,0,0,1,197.44,417a55.42,55.42,0,0,1-19.88,3.31q-13.08,0-22.42-4.46A34.69,34.69,0,0,1,140.46,403a33.26,33.26,0,0,1-4.24-10.2H237.11A64.16,64.16,0,0,0,246.55,418a70.15,70.15,0,0,0,28.29,25.11q18,9.06,41.24,9.05,22.68,0,39.64-9.18a55.43,55.43,0,0,0,20.95-19.1v26.24h41.64V382.31q0-13,4.4-20.9a29.2,29.2,0,0,1,12.28-12,38.08,38.08,0,0,1,17.75-4.08q13.88,0,21.48,7.91t7.61,24.47v72.41h41.64V371.6q0-20.89-7.74-34.29a48.52,48.52,0,0,0-21.22-19.89q-13.49-6.5-30.56-6.5-18.42,0-32.83,7.4a53.81,53.81,0,0,0-12.81,9.05V261ZM135.7,369.56a34.48,34.48,0,0,1,4-11.6,31.88,31.88,0,0,1,12.68-12.49A38.52,38.52,0,0,1,171.15,341a37.83,37.83,0,0,1,18.69,4.46,32.48,32.48,0,0,1,12.54,12.37,32.12,32.12,0,0,1,3.89,11.72Zm180.12,50a40.41,40.41,0,0,1-19-4.46,33.84,33.84,0,0,1-13.61-13q-5.07-8.54-5.07-20.52t5.07-20.4a34.11,34.11,0,0,1,13.61-12.88,40.41,40.41,0,0,1,19-4.46A37.63,37.63,0,0,1,334,348.27q8.28,4.47,14.15,14.16l28.56-15v68.25l-28.56-15q-5.87,9.94-14.15,14.41a37.63,37.63,0,0,1-18.14,4.46Z" transform="translate(0 -1.04)"/><path class="cls-1" d="M214.18,177.22c15,0,28.53,3,40.18,8.88a68.32,68.32,0,0,1,27.32,24.35c6.53,10.26,9.85,22.24,9.85,35.6s-3.31,25.28-9.84,35.45a69.66,69.66,0,0,1-27.35,24.37c-11.64,6-25.15,9-40.16,9-14.83,0-28.2-3-39.74-9a69.83,69.83,0,0,1-24.79-20.94L147,281.27l-2-3.77a65.45,65.45,0,0,1-7.56-31.45,66.19,66.19,0,0,1,7.39-31.39l2.08-3.91,2.73-3.76a69.06,69.06,0,0,1,24.84-20.89c11.56-5.89,24.93-8.88,39.76-8.88m0,110.46a42.28,42.28,0,0,0,20.58-4.91,37,37,0,0,0,14.46-14.5c3.6-6.3,5.42-13.78,5.42-22.22,0-8.63-1.83-16.12-5.44-22.27a37.66,37.66,0,0,0-14.44-14.21,41.85,41.85,0,0,0-20.31-4.9,42.54,42.54,0,0,0-20.42,4.9,37.25,37.25,0,0,0-14.6,14.21c-3.61,6.14-5.44,13.63-5.44,22.27,0,8.45,1.83,15.93,5.42,22.22A36.69,36.69,0,0,0,194,282.78a41.92,41.92,0,0,0,20.15,4.9m-130-110.46c14.8,0,27.89,3,38.9,8.85a52.17,52.17,0,0,1,21.48,20.62l.83,1.47-4.64,2.44-23,12.06a40.2,40.2,0,0,0-14-13.1,41.53,41.53,0,0,0-19.88-4.89,44.12,44.12,0,0,0-20.66,4.88,37.79,37.79,0,0,0-15,14.2c-3.7,6.15-5.58,13.65-5.58,22.3s1.87,16.17,5.57,22.4a37.45,37.45,0,0,0,15,14.35,44.06,44.06,0,0,0,20.66,4.88,41.37,41.37,0,0,0,19.88-4.9,39.45,39.45,0,0,0,14-13.34l23.11,12.14,4.44,2.33-.74,1.32A53.22,53.22,0,0,1,123,305.9c-11,6-24.08,9-38.88,9-15.2,0-28.86-3-40.59-8.89A68.71,68.71,0,0,1,16,281.51,64.68,64.68,0,0,1,6,246.05c0-13.35,3.35-25.28,10-35.45a70.32,70.32,0,0,1,27.62-24.37c11.73-6,25.38-9,40.57-9m65.16,28.87h0m64.86-31.87q-23.07,0-41.12,9.2a71.73,71.73,0,0,0-25.9,21.8,54.91,54.91,0,0,0-22.69-21.8q-17.23-9.19-40.31-9.2-23.61,0-41.94,9.33A73.08,73.08,0,0,0,13.45,209Q3,225,3,246.05q0,20.74,10.45,37.07a71.43,71.43,0,0,0,28.77,25.55q18.33,9.19,41.94,9.2,23.07,0,40.31-9.33,15-8.16,22.75-21.84a72.69,72.69,0,0,0,25.84,21.84q18,9.33,41.12,9.33,23.34,0,41.53-9.33a72.35,72.35,0,0,0,28.5-25.42q10.32-16.06,10.32-37.07t-10.32-37.21a71,71,0,0,0-28.5-25.42q-18.18-9.19-41.53-9.2Zm0,110.46a38.76,38.76,0,0,1-18.73-4.54A33.61,33.61,0,0,1,182,266.79q-5-8.82-5-20.74,0-12.2,5-20.75a34.12,34.12,0,0,1,13.43-13.09,39.32,39.32,0,0,1,19-4.54,38.56,38.56,0,0,1,18.87,4.54,34.53,34.53,0,0,1,13.3,13.09q5,8.56,5,20.75,0,11.93-5,20.74a34,34,0,0,1-13.3,13.35,39.13,39.13,0,0,1-19.14,4.54Zm-130.29,0a40.91,40.91,0,0,1-19.27-4.54,34.31,34.31,0,0,1-13.85-13.22q-5.16-8.69-5.15-20.87t5.15-20.75a34.59,34.59,0,0,1,13.85-13.09,40.91,40.91,0,0,1,19.27-4.54,38.24,38.24,0,0,1,18.46,4.54q8.4,4.53,14.38,14.39l25.39-13.34a72.76,72.76,0,0,0,.18,65.67l-25.57-13.44q-6,10.11-14.38,14.65a38.24,38.24,0,0,1-18.46,4.54Z" transform="translate(0 -1.04)"/><path class="cls-1" d="M482.64,177.22c11.06,0,21,2.12,29.48,6.3a45.27,45.27,0,0,1,19.74,19c4.79,8.58,7.22,19.83,7.22,33.41V312.8H502.74V242.16c0-11.94-2.68-21-8-26.9s-12.93-9-22.46-9a37.57,37.57,0,0,0-18.27,4.39,29.89,29.89,0,0,0-12.51,13.22c-2.82,5.67-4.25,13.06-4.25,22v67H401V242.16c0-11.94-2.68-21-8-26.9s-13.11-9-23-9a37,37,0,0,0-18,4.39,30.75,30.75,0,0,0-12.63,13.19c-2.92,5.68-4.4,13.08-4.4,22v67H298.61V179.29h34.45v20.76l5.22-5.76a46.71,46.71,0,0,1,13-10,64.73,64.73,0,0,1,30.37-7.05c12.74,0,24.07,3.11,33.67,9.25a40.48,40.48,0,0,1,12.23,12.18l2.21,3.43,2.61-3.14A58.07,58.07,0,0,1,447,186.51c10.14-6.17,22.13-9.29,35.63-9.29m0-3q-21.18,0-37.19,9.72A60.8,60.8,0,0,0,430.08,197,43.23,43.23,0,0,0,417,183.94q-15.21-9.72-35.29-9.72a67.37,67.37,0,0,0-31.76,7.39,49.38,49.38,0,0,0-13.84,10.67v-16H295.61V315.8H338v-70q0-12.71,4.07-20.62a27.65,27.65,0,0,1,11.4-11.93,34,34,0,0,1,16.56-4q13.56,0,20.76,8t7.2,24.9V315.8h42.34v-70q0-12.71,3.94-20.62a26.91,26.91,0,0,1,11.26-11.93,34.53,34.53,0,0,1,16.83-4q13,0,20.22,8t7.2,24.9V315.8h42.34V235.93q0-21.26-7.6-34.87a48,48,0,0,0-21-20.23q-13.43-6.62-30.8-6.61Z" transform="translate(0 -1.04)"/><path class="cls-1" d="M740.23,177.22c11.06,0,21,2.12,29.49,6.3a45.33,45.33,0,0,1,19.74,19c4.79,8.58,7.22,19.82,7.22,33.41V312.8H760.33V242.16c0-11.95-2.67-21-8-26.9s-12.92-9-22.45-9a37.64,37.64,0,0,0-18.28,4.39,29.93,29.93,0,0,0-12.5,13.22c-2.82,5.67-4.25,13.06-4.25,22v67H658.54V242.16c0-11.94-2.67-21-8-26.9s-13.11-9-23-9a37,37,0,0,0-18,4.39A30.72,30.72,0,0,0,597,223.8c-2.92,5.68-4.41,13.08-4.41,22v67H556.21V179.29h34.44v20.76l5.23-5.76a46.71,46.71,0,0,1,13-10,64.73,64.73,0,0,1,30.37-7.05c12.74,0,24.07,3.11,33.67,9.25a40.44,40.44,0,0,1,12.22,12.18l2.22,3.43,2.61-3.14a57.85,57.85,0,0,1,14.62-12.43c10.15-6.17,22.14-9.29,35.63-9.29m0-3q-21.16,0-37.19,9.72A61,61,0,0,0,687.67,197a43.23,43.23,0,0,0-13.13-13.08q-15.19-9.72-35.28-9.72a67.34,67.34,0,0,0-31.76,7.39,49.43,49.43,0,0,0-13.85,10.67v-16H553.21V315.8h42.34v-70q0-12.71,4.08-20.62A27.65,27.65,0,0,1,611,213.24a33.93,33.93,0,0,1,16.55-4q13.57,0,20.77,8t7.19,24.9V315.8h42.35v-70q0-12.71,3.93-20.62a26.87,26.87,0,0,1,11.27-11.93,34.5,34.5,0,0,1,16.83-4q13,0,20.22,8t7.19,24.9V315.8h42.35V235.93q0-21.26-7.6-34.87a48,48,0,0,0-21-20.23q-13.44-6.62-30.81-6.61Z" transform="translate(0 -1.04)"/><path class="cls-1" d="M954.93,179.29V312.8H920.75V291.35l-5.24,5.93A47.33,47.33,0,0,1,902,307.82a63,63,0,0,1-29.55,7.05c-11.8,0-22.33-2.17-31.28-6.45a46.14,46.14,0,0,1-20.66-19.51c-5-8.83-7.49-20.2-7.49-33.79V179.29h36.35V248.9c0,12.49,2.87,21.86,8.55,27.86s13.81,9.1,24,9.1a38.73,38.73,0,0,0,18.81-4.51A33.07,33.07,0,0,0,914,267.7c3.21-5.95,4.84-13.41,4.84-22.17V179.29h36.08m3-3H915.85v69.24q0,12.43-4.48,20.74a29.94,29.94,0,0,1-12.08,12.45,35.69,35.69,0,0,1-17.37,4.14q-14.11,0-21.85-8.16t-7.73-25.8V176.29H810v78.83q0,21.27,7.87,35.26a48.94,48.94,0,0,0,22,20.75q14.11,6.75,32.57,6.74a65.7,65.7,0,0,0,31-7.39,50,50,0,0,0,14.38-11.22V315.8h40.18V176.29Z" transform="translate(0 -1.04)"/><path class="cls-1" d="M1058.9,177.22c11.07,0,21.09,2.12,29.78,6.31a46.52,46.52,0,0,1,20.28,19c5,8.57,7.47,19.8,7.47,33.37V312.8h-36.34V242.16c0-12-2.89-21.06-8.58-27s-13.8-9-24-9a41.76,41.76,0,0,0-19.43,4.49,32.81,32.81,0,0,0-13.73,13.39c-3.22,5.79-4.86,13.43-4.86,22.72v66H973.14V179.29h34.44v21.2l5.19-5.53a51.35,51.35,0,0,1,14.11-10.55c9.3-4.77,20.08-7.19,32-7.19m0-3q-18.74,0-33.39,7.52a54.31,54.31,0,0,0-14.93,11.17V176.29H970.14V315.8h42.34v-69q0-13.22,4.48-21.26a29.71,29.71,0,0,1,12.49-12.19,38.69,38.69,0,0,1,18-4.15q14.12,0,21.85,8t7.74,24.9V315.8h42.34V235.93q0-21.26-7.87-34.87A49.2,49.2,0,0,0,1090,180.83q-13.71-6.62-31.08-6.61Z" transform="translate(0 -1.04)"/><path class="cls-1" d="M1151.73,114.73c7,0,12.83,1.82,17.24,5.42a16.32,16.32,0,0,1,6.36,13.36A18.51,18.51,0,0,1,1169,148c-4.35,3.93-10,5.84-17.26,5.84s-12.93-1.88-17.28-5.73a18.29,18.29,0,0,1,0-27.66c4.36-3.86,10-5.73,17.28-5.73m0-3q-11.94,0-19.27,6.48a21.29,21.29,0,0,0,0,32.15q7.32,6.49,19.27,6.49t19.27-6.62a21.52,21.52,0,0,0,7.33-16.72,19.37,19.37,0,0,0-7.46-15.69q-7.47-6.09-19.14-6.09Z" transform="translate(0 -1.04)"/><path class="cls-1" d="M1229.89,148.44v34h28l-1.4-3.12h36.84l40.3,92.86,2.74,6.31,2.76-6.3,40.64-92.87h33.87l-64.08,143.84,0,0,0,0c-4.54,11-9.77,19.63-15.54,25.64a49.19,49.19,0,0,1-18.92,12.61,70,70,0,0,1-23.3,3.71,73.82,73.82,0,0,1-21.38-3.24,53,53,0,0,1-15.48-7.3l12.56-23.58a38.09,38.09,0,0,0,9.29,4.94,40.46,40.46,0,0,0,13.93,2.51c6.43,0,11.74-1.56,15.79-4.63s7.41-7.74,10.54-14.48l0,0v0l.52-1.18.54-1.22-.54-1.22L1270,209.29l-.79-1.77h-39.27v59.53c0,6.66,1.88,12,5.59,15.82s8.8,5.85,15,5.85a33.07,33.07,0,0,0,15.9-3.71l8.93,22.86a44,44,0,0,1-12.37,4.88,77.09,77.09,0,0,1-18.16,2.12c-16.36,0-29.22-4-38.2-11.83s-13.36-19.6-13.36-35.21V207.52H1169.9V312.8h-36.34V179.29h36.34v3.12h23.37v-34h36.62m3-3h-42.62v34H1172.9v-3.12h-42.34V315.8h42.34V210.52h17.37v57.31q0,24.89,14.39,37.46t40.17,12.58a80.35,80.35,0,0,0,18.87-2.2,44.43,44.43,0,0,0,15.34-6.62l-11.13-28.52q-7.07,5.19-17.38,5.19c-5.42,0-9.73-1.64-12.89-4.93s-4.75-7.86-4.75-13.74V210.52h34.32L1314.85,317l-.53,1.18q-4.33,9.33-9.63,13.35t-14,4a37.39,37.39,0,0,1-12.89-2.33,34.35,34.35,0,0,1-11.27-6.74l-15.47,29a53.46,53.46,0,0,0,18.46,9.33,76.24,76.24,0,0,0,22.25,3.37,72.27,72.27,0,0,0,24.3-3.89,51.76,51.76,0,0,0,20.09-13.35q9.09-9.46,16.15-26.58l66-148.06h-40.45L1336.41,271l-41.09-94.66h-43.43l1.4,3.12h-20.4v-34Zm185.4,30.85Z" transform="translate(0 -1.04)"/><path class="cls-1" d="M80.74,33.32c13.76,0,26.33,2.86,37.37,8.5a65.5,65.5,0,0,1,26.14,23.85c6.37,10.2,9.6,22.68,9.6,37.1,0,1.43-.09,3.13-.26,5q-.14,1.47-.27,2.85H41.64l.88,3.7a37,37,0,0,0,4.7,11.3,38.43,38.43,0,0,0,16.19,14.21c6.71,3.21,14.83,4.84,24.13,4.84a59.75,59.75,0,0,0,21.32-3.58,52.81,52.81,0,0,0,14.93-8.79l18.56,19.23a64.15,64.15,0,0,1-22.18,13.95c-9.76,3.74-21.2,5.64-34,5.64-16.13,0-30.4-3-42.43-9s-21.34-14.2-27.89-24.5S6,115.46,6,102.25s3.19-25.2,9.49-35.58A65.91,65.91,0,0,1,42,42.2c11.38-5.89,24.41-8.88,38.71-8.88M41.38,93h78.84l-.47-3.41A35.62,35.62,0,0,0,101.5,62.88,41.69,41.69,0,0,0,81,58a42.26,42.26,0,0,0-20.6,4.92A35.45,35.45,0,0,0,46.33,76.75a38.55,38.55,0,0,0-4.39,12.81L41.38,93M80.74,30.32q-22.29,0-40.09,9.22A68.46,68.46,0,0,0,12.92,65.12Q3,81.47,3,102.25t10.33,37q10.32,16.23,29.08,25.58t43.77,9.34q19.83,0,35.06-5.84a65.75,65.75,0,0,0,25.28-16.75L124,128.21a50.17,50.17,0,0,1-16.17,10.13,56.48,56.48,0,0,1-20.25,3.38q-13.32,0-22.84-4.55a35.31,35.31,0,0,1-15-13.11,33.67,33.67,0,0,1-4.31-10.39H156c.17-1.73.36-3.59.54-5.58s.27-3.76.27-5.32q0-22.59-10.06-38.69a68.16,68.16,0,0,0-27.32-24.93q-17.25-8.82-38.73-8.83ZM44.91,90a35.12,35.12,0,0,1,4-11.81A32.44,32.44,0,0,1,61.85,65.51,39.19,39.19,0,0,1,81,61a38.46,38.46,0,0,1,19,4.55A32.62,32.62,0,0,1,116.78,90Z" transform="translate(0 -1.04)"/><path class="cls-1" d="M353.65,33.32c13.76,0,26.33,2.86,37.37,8.5a65.47,65.47,0,0,1,26.13,23.85c6.38,10.2,9.61,22.68,9.61,37.1,0,1.43-.09,3.13-.26,5q-.13,1.47-.27,2.85H314.55l.87,3.7a37,37,0,0,0,4.71,11.3,38.37,38.37,0,0,0,16.19,14.21c6.71,3.21,14.83,4.84,24.12,4.84a59.67,59.67,0,0,0,21.32-3.58,52.67,52.67,0,0,0,14.93-8.79l18.56,19.23a64,64,0,0,1-22.18,13.95c-9.76,3.74-21.19,5.64-34,5.64-16.12,0-30.4-3-42.42-9s-21.34-14.2-27.89-24.5-9.86-22.18-9.86-35.39a72.59,72.59,0,0,1,2.69-20l-5.63-2L236.71,169.1H197.14L138.34,35.4h36.91l39.68,93.35,2.71,6.36,2.8-6.32L261.82,35.4h33.95l-12.37,28,5.29,2.79a65.94,65.94,0,0,1,26.24-24c11.39-5.89,24.42-8.88,38.72-8.88M314.29,93h78.84l-.48-3.41a35.64,35.64,0,0,0-18.24-26.75A41.69,41.69,0,0,0,353.92,58a42.32,42.32,0,0,0-20.61,4.92,35.51,35.51,0,0,0-14.08,13.87,38.54,38.54,0,0,0-4.38,12.81L314.29,93m39.36-62.72q-22.29,0-40.1,9.22a68.5,68.5,0,0,0-27.41,25.08L300.37,32.4h-40.5l-42.18,95.18L177.24,32.4H133.75l61.43,139.7h43.49l40-90.66a75.54,75.54,0,0,0-2.8,20.81q0,20.77,10.33,37t29.08,25.58q18.75,9.34,43.76,9.34,19.85,0,35.07-5.84a65.82,65.82,0,0,0,25.28-16.75l-22.56-23.37a50.21,50.21,0,0,1-16.18,10.13,56.48,56.48,0,0,1-20.25,3.38q-13.32,0-22.83-4.55a35.19,35.19,0,0,1-14.95-13.11,33.69,33.69,0,0,1-4.32-10.39h110.6q.27-2.6.55-5.58c.17-2,.27-3.76.27-5.32q0-22.59-10.06-38.69a68.22,68.22,0,0,0-27.32-24.93q-17.26-8.82-38.73-8.83ZM317.81,90a35.34,35.34,0,0,1,4-11.81,32.47,32.47,0,0,1,12.92-12.72A39.19,39.19,0,0,1,353.92,61a38.49,38.49,0,0,1,19,4.55A32.64,32.64,0,0,1,389.68,90Z" transform="translate(0 -1.04)"/><path class="cls-1" d="M636.33,4.5v34h36.15V63.67H636.33v59.61c0,6.67,1.88,12,5.59,15.84S650.73,145,657,145a33.07,33.07,0,0,0,15.92-3.72l.81,2.08,2.51,6.42,3-6.21,4.4-9.15a116.31,116.31,0,0,0,21.91,8.26,105.26,105.26,0,0,0,27.84,3.87c10.4,0,17.67-1.22,22.24-3.74,6.34-3.5,7.67-8.45,7.67-12,0-4.41-2.21-7.89-6.38-10.06a45.9,45.9,0,0,0-13.39-4.06c-5.12-.86-11-1.74-17.35-2.61a175.69,175.69,0,0,1-18.57-3.58,72.92,72.92,0,0,1-16.71-6.35,30.7,30.7,0,0,1-11.65-10.78C676.39,88.87,675,82.86,675,75.5a35.91,35.91,0,0,1,.91-8.15l.8-3.47,1.53-3.21a35,35,0,0,1,4.26-6.8c5.07-6.38,12.42-11.44,21.83-15,9.58-3.66,21.38-5.52,35.08-5.52a145.46,145.46,0,0,1,30,3.18,99.91,99.91,0,0,1,22.56,7.35l-11.7,23.41a79.75,79.75,0,0,0-19.12-6.89A99.77,99.77,0,0,0,739.9,58c-10.4,0-17.81,1.31-22.66,4-6.67,3.71-8.06,8.56-8.06,12a11.61,11.61,0,0,0,6.43,10.54,42.81,42.81,0,0,0,13.74,4.36c5.23.86,11.12,1.74,17.48,2.61A167.58,167.58,0,0,1,765.26,95a73,73,0,0,1,16.58,6.36,30.59,30.59,0,0,1,11.65,10.77c2.85,4.51,4.3,10.53,4.3,17.87a31.79,31.79,0,0,1-7.48,20.83c-5.07,6.21-12.55,11.19-22.23,14.79-9.87,3.66-22.09,5.52-36.33,5.52A145.26,145.26,0,0,1,696.59,167c-4.16-1-8.07-2.2-11.6-3.44l-1.37-.48-1.22.77a43.28,43.28,0,0,1-12.92,5.22,77.47,77.47,0,0,1-18.19,2.12c-16.39,0-29.26-4-38.26-11.85s-13.38-19.62-13.38-35.26V63.67H577.09V38.52h22.56V4.5h36.68M519.73,33.32c11.08,0,21.12,2.13,29.82,6.33A46.47,46.47,0,0,1,569.86,58.7c.51.88,1,1.83,1.53,2.9l1.4,2.87,1.05,3.15a77.71,77.71,0,0,1,3.5,24.5v77h-36.4V98.35c0-12-2.89-21.08-8.59-27s-13.81-9-24-9a41.84,41.84,0,0,0-19.45,4.49,32.82,32.82,0,0,0-13.75,13.4c-3.23,5.8-4.86,13.45-4.86,22.76V169.1H433.84V35.4h34.5V56.62l5.19-5.53a51.71,51.71,0,0,1,14.13-10.57c9.32-4.78,20.11-7.2,32.07-7.2M639.33,1.5H596.65v34H574.09V60.29c-.51-1.06-1.05-2.1-1.63-3.09a49.34,49.34,0,0,0-21.61-20.26q-13.73-6.61-31.12-6.62-18.76,0-33.44,7.53a54.32,54.32,0,0,0-15,11.19V32.4h-40.5V172.1h42.41V103q0-13.25,4.48-21.3a29.72,29.72,0,0,1,12.51-12.2,38.67,38.67,0,0,1,18.07-4.15q14.13,0,21.88,8.05t7.75,24.92V172.1h42.4v-80a80.31,80.31,0,0,0-3.66-25.45h20v57.39q0,24.93,14.41,37.52t40.23,12.59a80,80,0,0,0,18.89-2.2,46.21,46.21,0,0,0,13.81-5.6q5.46,1.92,11.88,3.52a147.06,147.06,0,0,0,35.88,4.28q22,0,37.37-5.71t23.51-15.71A34.93,34.93,0,0,0,800.79,130q0-11.94-4.76-19.47a33.56,33.56,0,0,0-12.77-11.82A76.67,76.67,0,0,0,766,92.12a169.28,169.28,0,0,0-18.76-3.63q-9.51-1.3-17.4-2.6a39.44,39.44,0,0,1-12.77-4A8.6,8.6,0,0,1,712.18,74q0-5.72,6.52-9.35T739.9,61a96.43,96.43,0,0,1,20.52,2.34,77.53,77.53,0,0,1,21.07,8L795.9,42.53q-10.6-5.72-26-9a147.88,147.88,0,0,0-30.58-3.25q-21.21,0-36.15,5.71T680.1,52a38.45,38.45,0,0,0-4.62,7.38V35.52H639.33V1.5ZM657,142q-8.16,0-12.91-4.94t-4.76-13.76V66.67h33.61a38.74,38.74,0,0,0-1,8.83q0,12,4.75,19.48a33.42,33.42,0,0,0,12.78,11.81,74.73,74.73,0,0,0,17.4,6.62,177.26,177.26,0,0,0,18.89,3.64q9.51,1.31,17.26,2.6a42.87,42.87,0,0,1,12.5,3.76q4.76,2.48,4.76,7.4,0,6-6.12,9.35t-20.79,3.37a102,102,0,0,1-27-3.76,109.23,109.23,0,0,1-24.05-9.48l-5.75,12-2.14-5.47Q667.33,142,657,142Z" transform="translate(0 -1.04)"/></g></g></svg>