<svg xmlns="http://www.w3.org/2000/svg" viewBox="0 0 1411 191.22"><defs><style>.cls-1{fill:#ccc;}.cls-2{fill:none;}</style></defs><title>tech-headline-outline</title><g id="Layer_2" data-name="Layer 2"><g id="Layer_1-2" data-name="Layer 1"><path class="cls-1" d="M64.06,26.17v33.4h35.5v24.6H64.06v58.58c0,6.56,1.85,11.81,5.51,15.6s8.67,5.76,14.84,5.76a32.52,32.52,0,0,0,15.6-3.63l8.74,22.4a43.17,43.17,0,0,1-12.1,4.76,76.16,76.16,0,0,1-17.85,2.08c-16.08,0-28.71-3.91-37.53-11.62s-13.12-19.24-13.12-34.58V84.17H6V59.57H28.15V26.17H64.06m3-3H25.15v33.4H3v30.6H25.15v56.35q0,24.47,14.15,36.84t39.5,12.36a78.69,78.69,0,0,0,18.55-2.16,43.66,43.66,0,0,0,15.08-6.5L101.49,156q-6.94,5.1-17.08,5.1-8,0-12.68-4.85t-4.67-13.51V87.17h35.5V56.57H67.06V23.17Z" transform="translate(0 -1.5)"/><path class="cls-1" d="M415.31,4.5V75l5.07-4.87a51.25,51.25,0,0,1,12.11-8.55c9.14-4.69,19.72-7.07,31.46-7.07a66.76,66.76,0,0,1,29.25,6.21,45.68,45.68,0,0,1,19.93,18.68c4.87,8.43,7.34,19.46,7.34,32.8v75.53H484.83V118.27c0-11.79-2.84-20.73-8.45-26.55s-13.59-8.83-23.64-8.83a41.16,41.16,0,0,0-19.13,4.42,32.19,32.19,0,0,0-13.52,13.19c-3.18,5.69-4.78,13.22-4.78,22.36v64.83H379.67V4.5h35.64m-99.23,50c14.55,0,27.41,2.93,38.22,8.7a51.68,51.68,0,0,1,19.83,18.1l2.19,3.5-1.05.55L349.15,99a39.51,39.51,0,0,0-13.76-12.86,40.92,40.92,0,0,0-19.57-4.82,43.41,43.41,0,0,0-20.34,4.81,37.12,37.12,0,0,0-14.8,14c-3.65,6.06-5.5,13.44-5.5,21.95S277,138,280.67,144.15a36.8,36.8,0,0,0,14.81,14.14,43.46,43.46,0,0,0,20.34,4.8,40.75,40.75,0,0,0,19.57-4.82,38.93,38.93,0,0,0,13.79-13.1l26.09,13.71,1,.54-2.17,3.41a52.7,52.7,0,0,1-19.84,18.08c-10.81,5.85-23.66,8.81-38.21,8.81-14.94,0-28.36-2.93-39.89-8.73a67.49,67.49,0,0,1-27.11-24.05,61.37,61.37,0,0,1-9-24.07l-.39-2.55H132.42l.88,3.69a36.24,36.24,0,0,0,4.62,11.11,37.76,37.76,0,0,0,15.92,14c6.6,3.15,14.58,4.75,23.72,4.75a58.61,58.61,0,0,0,20.95-3.51,51.82,51.82,0,0,0,14.64-8.61l18.15,18.81a62.84,62.84,0,0,1-21.72,13.65c-9.58,3.67-20.8,5.53-33.36,5.53-15.82,0-29.83-3-41.63-8.86s-20.94-13.93-27.37-24-9.67-21.76-9.67-34.72,3.13-24.73,9.31-34.91a64.58,64.58,0,0,1,26-24c11.17-5.78,23.95-8.72,38-8.72,13.5,0,25.84,2.81,36.66,8.34a64.33,64.33,0,0,1,25.65,23.4,57.74,57.74,0,0,1,5.19,10.65l2.66,7.23L244,97a59,59,0,0,1,5.09-9.7,69.08,69.08,0,0,1,27.14-23.94c11.53-5.88,24.94-8.86,39.87-8.86M132.17,113.12h77.54l-.47-3.42a35,35,0,0,0-18-26.3,40.88,40.88,0,0,0-20.14-4.84,41.65,41.65,0,0,0-20.26,4.83A35,35,0,0,0,137.05,97a37.73,37.73,0,0,0-4.31,12.6l-.57,3.48M418.31,1.5H376.67V79.67a54.37,54.37,0,0,0-20.95-19.15q-17-9-39.64-9.05-23.22,0-41.24,9.18a71.82,71.82,0,0,0-28.29,25,61.49,61.49,0,0,0-5.35,10.19,60.27,60.27,0,0,0-5.46-11.21,66.88,66.88,0,0,0-26.82-24.48q-16.95-8.66-38-8.67-21.9,0-39.37,9.05a67.29,67.29,0,0,0-27.23,25.12q-9.75,16.06-9.74,36.46t10.14,36.33q10.14,15.94,28.56,25.12t43,9.17q19.49,0,34.43-5.73a64.75,64.75,0,0,0,24.83-16.45L213.32,147.6a49.32,49.32,0,0,1-15.88,9.94,55.42,55.42,0,0,1-19.88,3.31q-13.08,0-22.42-4.46a34.62,34.62,0,0,1-14.68-12.87,33.26,33.26,0,0,1-4.24-10.2H237.11a64.16,64.16,0,0,0,9.44,25.24,70.15,70.15,0,0,0,28.29,25.11q18,9.06,41.24,9.05,22.68,0,39.64-9.17a55.53,55.53,0,0,0,20.95-19.11v26.25h41.64V122.86q0-13,4.4-20.9A29.2,29.2,0,0,1,435,90a38.08,38.08,0,0,1,17.75-4.08q13.88,0,21.48,7.91t7.61,24.47v72.42h41.64V112.16q0-20.91-7.74-34.3A48.52,48.52,0,0,0,494.51,58Q481,51.48,464,51.47q-18.42,0-32.83,7.4a53.81,53.81,0,0,0-12.81,9.05V1.5ZM135.7,110.12a34.33,34.33,0,0,1,4-11.6A31.84,31.84,0,0,1,152.34,86a38.52,38.52,0,0,1,18.81-4.46A37.83,37.83,0,0,1,189.84,86a32.48,32.48,0,0,1,12.54,12.37,32.11,32.11,0,0,1,3.89,11.73Zm180.12,50a40.41,40.41,0,0,1-19-4.46,33.77,33.77,0,0,1-13.61-13q-5.07-8.53-5.07-20.52t5.07-20.4a34,34,0,0,1,13.61-12.87,40.29,40.29,0,0,1,19-4.47A37.53,37.53,0,0,1,334,88.83q8.28,4.45,14.15,14.15l28.56-15v68.25l-28.56-15q-5.87,9.94-14.15,14.41a37.63,37.63,0,0,1-18.14,4.46Z" transform="translate(0 -1.5)"/><rect class="cls-2" y="0.09" width="1411" height="191"/></g></g></svg>