<svg xmlns="http://www.w3.org/2000/svg" viewBox="0 0 523.47 194.22"><defs><style>.cls-1{fill:none;stroke:#fff;stroke-miterlimit:10;stroke-width:3px;}</style></defs><title>tech-txt</title><g id="Layer_2" data-name="Layer 2"><g id="Layer_1-2" data-name="Layer 1"><path class="cls-1" d="M82.91,161.11q-8,0-12.68-4.85t-4.67-13.51V87.17h35.5V56.57H65.56V23.17H23.65v33.4H1.5v30.6H23.65v56.35q0,24.47,14.15,36.84t39.5,12.36a78.69,78.69,0,0,0,18.55-2.16,43.66,43.66,0,0,0,15.08-6.5L100,156Q93,161.11,82.91,161.11Z"/><path class="cls-1" d="M514.23,77.86A48.52,48.52,0,0,0,493,58q-13.49-6.49-30.56-6.5-18.42,0-32.83,7.4a53.81,53.81,0,0,0-12.81,9.05V1.5H375.17V79.67a54.37,54.37,0,0,0-20.95-19.15q-17-9-39.64-9.05-23.22,0-41.24,9.18a71.82,71.82,0,0,0-28.29,25,61.49,61.49,0,0,0-5.35,10.19,60.27,60.27,0,0,0-5.46-11.21,66.88,66.88,0,0,0-26.82-24.48q-16.95-8.66-38-8.67-21.9,0-39.37,9.05a67.29,67.29,0,0,0-27.23,25.12Q93,101.7,93.05,122.1t10.14,36.33q10.14,15.94,28.56,25.12t43,9.17q19.49,0,34.43-5.73A64.75,64.75,0,0,0,234,170.54L211.82,147.6a49.32,49.32,0,0,1-15.88,9.94,55.42,55.42,0,0,1-19.88,3.31q-13.08,0-22.42-4.46A34.62,34.62,0,0,1,139,143.52a33.26,33.26,0,0,1-4.24-10.2H235.61a64.16,64.16,0,0,0,9.44,25.24,70.15,70.15,0,0,0,28.29,25.11q18,9.06,41.24,9.05,22.68,0,39.64-9.17a55.53,55.53,0,0,0,20.95-19.11v26.25h41.64V122.86q0-13,4.4-20.9a29.2,29.2,0,0,1,12.28-12,38.08,38.08,0,0,1,17.75-4.08q13.88,0,21.48,7.91t7.61,24.48v72.41H522V112.16Q522,91.25,514.23,77.86ZM150.84,86a38.52,38.52,0,0,1,18.81-4.46A37.83,37.83,0,0,1,188.34,86a32.48,32.48,0,0,1,12.54,12.37,32.11,32.11,0,0,1,3.89,11.73H134.2a34.33,34.33,0,0,1,4-11.6A31.84,31.84,0,0,1,150.84,86Zm195.77,55.2q-5.87,9.94-14.15,14.41a37.63,37.63,0,0,1-18.14,4.46,40.41,40.41,0,0,1-19-4.46,33.77,33.77,0,0,1-13.61-13q-5.07-8.53-5.07-20.52t5.07-20.4a34,34,0,0,1,13.61-12.87,40.29,40.29,0,0,1,19-4.47,37.53,37.53,0,0,1,18.14,4.47q8.28,4.45,14.15,14.15l28.56-15v68.25Z"/></g></g></svg>