<svg id="Layer_1" data-name="Layer 1" xmlns="http://www.w3.org/2000/svg" viewBox="0 0 800 1100"><defs><style>.cls-1{fill:#e6e6e6;}</style></defs><title>off-the-grid</title><path class="cls-1" d="M737.3,8a130.56,130.56,0,0,1,27.81,3,75.75,75.75,0,0,1,16.39,5.42L768.38,52.84a59.11,59.11,0,0,0-6.45-2.43,59.75,59.75,0,0,0-17.82-2.63c-12.48,0-22.42,3.71-29.56,11s-10.68,18.31-10.68,32.81v10a8,8,0,0,0,8,8h54.67v38.45h-52.4a8,8,0,0,0-8,8V332.28H650.85V156.06a8,8,0,0,0-8-8H545.38a8,8,0,0,0-8,8V332.28h-55.3V156.06a8,8,0,0,0-8-8h-23a8,8,0,0,0-7,11.95c9.66,17,14.56,36.57,14.56,58.21,0,22.89-5.41,43.31-16.08,60.71s-25.72,31.43-44.64,41.6A128.22,128.22,0,0,1,357.38,334a8,8,0,0,0-6.74,7.9v114a8,8,0,0,0,13.67,5.65,84.39,84.39,0,0,1,19.91-14.73c15.1-8.1,32.62-12.21,52.07-12.21,18,0,34.3,3.61,48.39,10.72,13.75,6.94,24.75,17.75,32.7,32.12,6.63,12,10.58,27.26,11.75,45.37a8,8,0,0,0,7.26,7.45c.24,0,.49,0,.73,0a8,8,0,0,0,7.75-6,110.14,110.14,0,0,1,18.59-38.81C576,468.44,593.13,454.85,614.31,445c18.2-8.48,36.65-12.78,54.84-12.78,2.16,0,4.35.06,6.51.18a108.8,108.8,0,0,1,55.73,18.85c16.79,11.4,30.6,28.55,41.05,50.95,1,2.19,2.12,4.88,3.26,8l.84,2.31L615.73,587.37a8,8,0,0,0-2.94,12.16,68.93,68.93,0,0,0,16,15.18,68.08,68.08,0,0,0,36.55,11.57l2,0c12.44,0,25.74-3.26,39.52-9.68,12.4-5.77,22.7-13,30.62-21.39a90.17,90.17,0,0,0,15.4-22.55L790.15,588a104.17,104.17,0,0,1-21.78,34.33c-11.73,12.52-27.31,23.35-46.31,32.2-22,10.24-43.52,15.43-64,15.43-1.82,0-3.66,0-5.47-.12-22-1-41.76-7.26-58.86-18.66s-30.6-27.56-40.16-48a136,136,0,0,1-8.31-22.86,8,8,0,0,0-7.73-6,7.13,7.13,0,0,0-1,.07,8,8,0,0,0-7,7.93v84H474.71V545.43c0-21.64-5.06-38.12-15-49-10.17-11.05-24.45-16.65-42.44-16.65a70.52,70.52,0,0,0-34,8.23,58.87,58.87,0,0,0-24.14,24.6c-5.59,10.51-8.43,24.29-8.43,41V666.29H295.8v-2.67a8,8,0,0,1,0-5.73V337.67a8,8,0,0,0-5.69-7.66,122.81,122.81,0,0,1-22.84-9.47,115.39,115.39,0,0,1-44.43-41.82c-10.67-17.53-16.08-37.89-16.08-60.5,0-22.91,5.41-43.41,16.08-60.95a113.78,113.78,0,0,1,44.39-41.57c18.87-10.07,40.75-15.17,65-15.17,24.59,0,46.7,5.11,65.73,15.18a115.82,115.82,0,0,1,32.44,25.22,8,8,0,0,0,6,2.68,8.12,8.12,0,0,0,2.85-.53,8,8,0,0,0,5.15-7.47v-26h29.68a8,8,0,0,0,8-8V90.72c0-25.86,7.26-45.68,22.18-60.59C519,15.42,540.6,8,568.53,8a130.49,130.49,0,0,1,27.81,3,75.66,75.66,0,0,1,16.4,5.42L599.61,52.84a58.34,58.34,0,0,0-6.45-2.43,59.68,59.68,0,0,0-17.81-2.63c-12.48,0-22.43,3.71-29.57,11s-10.67,18.31-10.67,32.81v10a8,8,0,0,0,8,8h99.74a8,8,0,0,0,8-8V90.72c0-25.86,7.25-45.68,22.18-60.59C687.74,15.42,709.37,8,737.3,8m-405,285.86c13.46,0,25.57-3,36-9s19-14.92,25.3-26.48,9.37-24.93,9.37-40.13c0-15.53-3.17-29.06-9.42-40.22a67.32,67.32,0,0,0-25.25-25.94c-10.44-6-22.39-9-35.54-9A71.71,71.71,0,0,0,297,152a66.59,66.59,0,0,0-25.52,26c-6.26,11.14-9.43,24.67-9.43,40.22,0,15.22,3.15,28.72,9.37,40.12A65.81,65.81,0,0,0,297,284.86a70.85,70.85,0,0,0,35.27,9M600.89,565.55a8,8,0,0,0,3.38-.75L712.9,514.21a8,8,0,0,0,3.37-11.56,67.66,67.66,0,0,0-16.75-18.31,64.48,64.48,0,0,0-32.64-12.45c-1.89-.18-3.82-.26-5.72-.26a72.36,72.36,0,0,0-30.56,7.19c-12.2,5.68-21.89,13.54-28.82,23.35a63.53,63.53,0,0,0-11.6,33.4,71.94,71.94,0,0,0,3,24.21,8,8,0,0,0,7.68,5.77M204.32,384.18v51.44a8,8,0,0,0,8,8h52.4v38.45h-52.4a8,8,0,0,0-8,8V589c0,12.32,3.39,22.24,10.06,29.46,6.84,7.44,16.08,11.21,27.46,11.21a57.85,57.85,0,0,0,24.94-5.23l13,34.81a69.73,69.73,0,0,1-17.87,7.07,120.71,120.71,0,0,1-29.6,3.62c-26.56,0-47.36-6.7-61.8-19.92C156.25,637,149,616.92,149,590.35V490.07a8,8,0,0,0-8-8H111.34V443.62H141a8,8,0,0,0,8-8V384.18h55.29M737.3,0q-45.4,0-69.93,24.5T642.85,90.72v10.89H543.11v-10q0-18.6,8.4-27.22t23.84-8.62A51.94,51.94,0,0,1,590.79,58,48.64,48.64,0,0,1,604,64.4l18.62-51.73q-10-6.35-24.52-9.53A138.35,138.35,0,0,0,568.53,0q-45.4,0-69.92,24.5T474.08,90.72v10.89H436.4v34a123.23,123.23,0,0,0-34.67-27q-30.42-16.11-69.47-16.11-38.6,0-68.79,16.11A121.08,121.08,0,0,0,216,153.11q-17.26,28.37-17.25,65.11,0,36.32,17.25,64.66t47.46,44.7a129.76,129.76,0,0,0,24.33,10.09V657.89l-16.9-45.31q-11.82,9.09-29.06,9.08-13.62,0-21.57-8.62t-8-24V490.07h60.4V435.62h-60.4V376.18H141v59.44H103.34v54.45H141V590.35q0,43.56,24.07,65.57t67.2,22a128.45,128.45,0,0,0,31.56-3.86,74.1,74.1,0,0,0,23.94-10.45v10.67h70.84V553.6q0-23.15,7.49-37.21A50.82,50.82,0,0,1,387,495.06a62.41,62.41,0,0,1,30.2-7.26q23.59,0,36.55,14.07t12.94,43.56V674.29h70.84v-92a143.76,143.76,0,0,0,8.8,24.21q15.36,32.91,43,51.32t62.93,20c1.94.09,3.88.13,5.83.13q32.6,0,67.34-16.18,30-14,48.78-34t25.91-44.35l-51.43-21.11a83.34,83.34,0,0,1-17,27.45q-10.87,11.57-28.17,19.62-19.15,8.93-36.14,8.93c-.6,0-1.19,0-1.79,0a59.84,59.84,0,0,1-32.32-10.22,60.6,60.6,0,0,1-14.16-13.44l167.42-78q-1.51-4.29-3.3-9.23t-3.53-8.62Q763,463,735.88,444.62a116,116,0,0,0-59.77-20.21q-3.48-.2-7-.2-29.17,0-58.22,13.53-33.75,15.7-53.9,42.87a117.43,117.43,0,0,0-19.91,41.62q-1.87-28.94-12.74-48.72-13.17-23.82-36.1-35.4t-52-11.57q-31.34,0-55.85,13.16a92,92,0,0,0-21.8,16.13v-114a135.37,135.37,0,0,0,43.09-14.27q30.42-16.35,47.68-44.47t17.26-64.89c0-23.25-5.25-43.95-15.6-62.16h23V340.28h71.3V156.06h97.47V340.28h71.29V156.06h60.4V101.61H711.87v-10q0-18.6,8.4-27.22t23.84-8.62A51.89,51.89,0,0,1,759.55,58a48.7,48.7,0,0,1,13.17,6.36l18.62-51.73q-10-6.35-24.52-9.53A138.35,138.35,0,0,0,737.3,0Zm-405,285.86a62.55,62.55,0,0,1-31.33-7.94q-14.08-7.93-22.48-23.37t-8.4-36.3q0-21.32,8.4-36.3A58.44,58.44,0,0,1,300.93,159a63.58,63.58,0,0,1,31.78-7.94q17.71,0,31.56,7.94a59,59,0,0,1,22.25,22.91q8.4,15,8.4,36.3,0,20.88-8.4,36.3t-22.25,23.37q-13.86,8-32,7.94ZM600.89,557.55A63.62,63.62,0,0,1,598.17,536a55.32,55.32,0,0,1,10.15-29.26q9.2-13,25.66-20.71a64.1,64.1,0,0,1,27.18-6.44c1.67,0,3.33.07,5,.22a56.47,56.47,0,0,1,28.64,10.94A59.56,59.56,0,0,1,709.53,507L600.89,557.55Z" transform="translate(-0.12 0.03)"/><path class="cls-1" d="M121.36,768.56c19.76,0,37.05,3.88,51.4,11.53a74.12,74.12,0,0,1,23.57,20,8,8,0,0,0,6.31,3.09,8.1,8.1,0,0,0,2.6-.43,8,8,0,0,0,5.4-7.57v-23h51.21V967.47c0,21.52-2.83,40.41-8.4,56.15-5.43,15.35-13.65,28.13-24.43,38-22,20.14-54.39,30.35-96.31,30.35a254.25,254.25,0,0,1-64.49-8.14c-17.53-4.6-32.63-11.22-45-19.73l20.34-37a132,132,0,0,0,34.26,16.33,163.5,163.5,0,0,0,49.9,7.87c26.85,0,47.06-6.41,60.07-19.06s19.67-31.43,19.67-55.65V965.35a8,8,0,0,0-5.19-7.49,7.8,7.8,0,0,0-2.81-.51,8,8,0,0,0-6,2.73,75.34,75.34,0,0,1-20.73,16.69c-14.33,7.79-31.6,11.74-51.35,11.74-20.68,0-39.88-4.65-57.09-13.81a106,106,0,0,1-41-38.42c-10-16.34-15.15-35.77-15.15-57.74,0-22.29,5.1-41.87,15.15-58.2a104.45,104.45,0,0,1,41-38.18c17.22-9,36.44-13.6,57.13-13.6m14.53,178.32c13.68,0,26.09-2.91,36.9-8.65A65.21,65.21,0,0,0,198.6,914c6.18-10.29,9.32-22.21,9.32-35.42,0-13.54-3.15-25.55-9.35-35.71a62.78,62.78,0,0,0-26-23.64c-10.78-5.37-23.13-8.1-36.72-8.1a81.87,81.87,0,0,0-36.45,8.08A63.93,63.93,0,0,0,73,842.74c-6.39,10.17-9.63,22.21-9.63,35.8,0,13.26,3.23,25.2,9.59,35.5a66.52,66.52,0,0,0,26.26,24.22,78.16,78.16,0,0,0,36.63,8.62M121.36,760.56q-33.15,0-60.85,14.52a111.75,111.75,0,0,0-44,41.06Q.13,842.69.12,878.54q0,35.38,16.34,61.93a113.33,113.33,0,0,0,44.05,41.29q27.69,14.76,60.85,14.75,31.79,0,55.17-12.71a82.76,82.76,0,0,0,22.93-18.45v11.19q0,33.13-17.25,49.92t-54.49,16.79a154.82,154.82,0,0,1-47.46-7.49q-23.39-7.48-39.28-20.65l-28.15,51.28q21.35,16.78,53.36,25.18a261,261,0,0,0,66.52,8.4q66.3,0,101.72-32.45t35.42-100V764.19H202.64v31A81.4,81.4,0,0,0,176.53,773q-23.39-12.48-55.17-12.48Zm14.53,178.32A69.86,69.86,0,0,1,103,931.17a58.34,58.34,0,0,1-23.16-21.33q-8.41-13.61-8.4-31.3,0-18.15,8.4-31.54A55.86,55.86,0,0,1,103,826.35a73.67,73.67,0,0,1,32.92-7.26q18.62,0,33.15,7.26A54.69,54.69,0,0,1,191.74,847q8.17,13.38,8.18,31.54,0,17.69-8.18,31.3A57.15,57.15,0,0,1,169,931.17q-14.55,7.73-33.15,7.71Z" transform="translate(-0.12 0.03)"/><path class="cls-1" d="M430.92,768.76v48.18a71.5,71.5,0,0,0-7.44-.4c-22,0-39.89,6.38-53.19,19s-20.2,32.07-20.2,57.53v107.26H295.25V772.19h51.66v24.07a8,8,0,0,0,5.52,7.61,7.88,7.88,0,0,0,2.48.39,8,8,0,0,0,6.46-3.28,70.49,70.49,0,0,1,22.85-20c12.92-7.18,28.59-11.27,46.7-12.18m8-8.2q-34.51,0-58.58,13.38a78.1,78.1,0,0,0-25.43,22.32V764.19H287.25v244.12h70.84V893.05q0-34.92,17.71-51.72t47.68-16.79A64.78,64.78,0,0,1,431,825q3.86.46,7.95,1.36V760.56Z" transform="translate(-0.12 0.03)"/><path class="cls-1" d="M783.34,679.62v320.69H731.68V980.39a8,8,0,0,0-5.31-7.53,7.86,7.86,0,0,0-2.69-.47,8,8,0,0,0-6.19,2.93,70.33,70.33,0,0,1-19,16.32c-14,8.16-31.18,12.3-51.14,12.3-21.51,0-41.11-4.92-58.27-14.62a105.86,105.86,0,0,1-40.57-40.76,112.05,112.05,0,0,1-11.94-32.63,8,8,0,0,0-7.83-6.39,7.32,7.32,0,0,0-.81,0,8,8,0,0,0-7.19,8v82.77H465.94V772.19h54.84V855a8,8,0,0,0,7.19,8,7.32,7.32,0,0,0,.81,0,8,8,0,0,0,7.83-6.39,112.05,112.05,0,0,1,11.94-32.63,105.93,105.93,0,0,1,40.57-40.76c17.16-9.7,36.77-14.62,58.27-14.62,19,0,35.86,4.21,50,12.51a74.39,74.39,0,0,1,17.22,14.06,8,8,0,0,0,5.91,2.61,7.88,7.88,0,0,0,2.89-.55,8,8,0,0,0,5.11-7.46V679.62h54.84M659.2,961.86a71.73,71.73,0,0,0,35.71-9,66,66,0,0,0,25.58-26.52c6.22-11.42,9.37-24.92,9.37-40.12,0-15.54-3.17-29.07-9.42-40.22a66.77,66.77,0,0,0-25.53-26,71.84,71.84,0,0,0-35.71-9,70.89,70.89,0,0,0-35.26,9,66.7,66.7,0,0,0-25.53,26c-6.25,11.14-9.42,24.67-9.42,40.22,0,15.22,3.15,28.72,9.37,40.12a65.78,65.78,0,0,0,25.57,26.51,70.75,70.75,0,0,0,35.27,9M791.34,671.62H720.5V789.73a82.22,82.22,0,0,0-19.07-15.56q-23.16-13.6-54-13.61-34.51,0-62.21,15.65A113.31,113.31,0,0,0,541.59,820a119.09,119.09,0,0,0-12.81,35V764.19H457.94v244.12h70.84V917.54a119.09,119.09,0,0,0,12.81,35,113.22,113.22,0,0,0,43.59,43.78q27.69,15.66,62.21,15.66,32.24,0,55.17-13.39a78,78,0,0,0,21.12-18.16v27.92h67.66V671.62ZM659.2,953.86a62.63,62.63,0,0,1-31.33-7.94q-14.08-7.93-22.48-23.37t-8.4-36.3q0-21.33,8.4-36.3A58.53,58.53,0,0,1,627.87,827a62.73,62.73,0,0,1,31.33-7.94A63.68,63.68,0,0,1,691,827,58.6,58.6,0,0,1,713.46,850q8.4,15,8.4,36.3,0,20.88-8.4,36.3A57.75,57.75,0,0,1,691,945.92a63.58,63.58,0,0,1-31.78,7.94Z" transform="translate(-0.12 0.03)"/><path class="cls-1" d="M574.25,705.1,525,749.4H478.58l49.24-44.3h46.43m20.86-8Zm0,0H524.75l-67,60.3h70.36l67-60.3Z" transform="translate(-0.12 0.03)"/></svg>