<?xml version="1.0" encoding="utf-8"?>
<!-- Generator: Adobe Illustrator 24.0.1, SVG Export Plug-In . SVG Version: 6.00 Build 0)  -->
<svg version="1.1" id="Layer_1" xmlns="http://www.w3.org/2000/svg" xmlns:xlink="http://www.w3.org/1999/xlink" x="0px" y="0px"
	 viewBox="0 0 688.2 970.9" style="enable-background:new 0 0 688.2 970.9;" xml:space="preserve">
<style type="text/css">
	.st0{fill:#D4D4D4;}
</style>
<title>off-the-grid</title>
<title>off-the-grid</title>
<g>
	<g>
		<path class="st0" d="M293.4,365.5c13.3,0,25.3,3.1,36.1,9.3c10.8,6.2,19.3,15.6,25.5,28.2c6.2,12.6,9.3,28.9,9.3,48.8v110.5h-60.4
			v-99.5c0-13.8-2.5-23.8-7.4-30.1c-5-6.3-11.7-9.4-20.1-9.4c-6.5,0-12.5,1.6-17.7,4.8c-5.3,3.2-9.4,8.1-12.3,14.8
			c-3,6.7-4.4,15.5-4.4,26.4v93h-60.1V297.8h60.1V424l-13.9-16c6.5-13.8,15.5-24.3,26.9-31.5C266.2,369.2,279.1,365.5,293.4,365.5z"
			/>
	</g>
</g>
<g>
	<path class="st0" d="M39.7,514.3c0,16.4,4.3,28.5,12.9,36.5c8.6,8,20.8,11.9,36.5,11.9h109v-48.4h-96.5V409.4h43.7V361h-44.4v-60.5
		H40.3V361H6.1v48.4h33.6V514.3z"/>
	<path class="st0" d="M334.9,590.8c-11.7,7.1-20.1,17.9-25.2,32.4h-14.1v-40.3h-41h-20.9h-41v33.6h-14.1
		c-7.2-11.9-16.9-21.1-29.1-27.7c-12.2-6.6-26.8-9.9-43.9-9.9c-30.7,0-54.8,9.3-72.1,27.9c-17.4,18.6-26.1,43.6-26.1,75
		c0,20.8,3.9,39,11.6,54.5c7.7,15.5,18.6,27.4,32.6,35.8c14,8.4,30.4,12.6,49.3,12.6c14.6,0,27-2.6,37.2-7.9
		c10.2-5.3,18.4-13.2,24.7-23.7h1.7v25.2c0,13.7-4.3,24.2-12.9,31.6c-8.6,7.4-21.1,11.1-37.5,11.1c-23.3,0-37.5-7.4-42.7-22.2H6.1
		c3.6,22.2,15.1,39.5,34.5,51.9c19.4,12.4,44.7,18.7,75.8,18.7c34.7,0,61.4-7.9,80-23.7c18.6-15.8,27.9-38.3,27.9-67.4V643.4h9.4
		h20.9h9.4v141.2h60.5V683.8c0-14.8,3.6-26.8,10.9-36c7.3-9.2,19.2-13.8,35.8-13.8H391v-53.8h-17.1
		C359.5,580.2,346.5,583.7,334.9,590.8z M162.4,686.4c0,13.9-4,24.8-12.1,32.6c-8.1,7.8-19.4,11.8-34,11.8c-15,0-26.6-4.2-34.8-12.6
		c-8.2-8.4-12.3-20.5-12.3-36.1c0-15.7,4.1-27.8,12.3-36.5c8.2-8.6,19.8-12.9,34.8-12.9c14.3,0,25.6,3.9,33.8,11.6
		c8.2,7.7,12.3,18.4,12.3,32.1V686.4z"/>
	<path class="st0" d="M479.1,571.4v-55.6c-0.1,0-0.2,0-0.3,0c-10.5,0-19.6-2-27.2-5.9c-7.6-4-13.4-9.6-17.5-17.1
		c-1.7-3.2-3.1-6.6-4.1-10.3h144.7c0.2-2.8,0.5-5.9,0.7-9.2c0.2-3.3,0.4-6.3,0.4-8.8c0-23-4.8-42.5-14.5-58.5
		c-9.7-16-22.6-28.2-38.6-36.8c-16.1-8.6-33.9-12.8-53.5-12.8c-21.1,0-39.9,4.6-56.4,13.8c-16.5,9.2-29.5,21.9-39,38.1
		c-9.4,16.2-14.2,34.8-14.2,55.8c0,20.4,4.8,38.8,14.5,55c9.7,16.2,23.3,29,40.8,38.3c17.5,9.3,38.2,14,61.9,14
		C477.7,571.4,478.4,571.4,479.1,571.4z M433,430.5c3.3-7,8.1-12.5,14.5-16.3c6.4-3.8,13.8-5.7,22.4-5.7c8.3,0,15.6,1.9,21.7,5.7
		c6.1,3.8,11,9.3,14.5,16.3c2.1,4.2,3.5,8.7,4.3,13.6h-81.5C429.7,439.2,431.1,434.7,433,430.5z"/>
	<path class="st0" d="M578.6,809.6V604h-57.3v98.7H520c-5.2-8.7-12.6-15.5-22.1-20.4c-9.6-4.9-21-7.3-34.3-7.3
		c-17.9,0-33.2,4-45.9,12.1c-9.7,6.2-17.7,14.3-23.9,24.3v-53.7h-57.3v207.8h57.3v-33.8c6.5,10.4,15,18.8,25.4,25.2
		c13.4,8.2,29.8,12.3,49.4,12.3c15.8,0,29.3-3.1,40.6-9.2c11.3-6.1,20.3-14.7,26.9-25.7h13.1v31.1h57.3v-56.1H578.6z M521.3,779
		c0,12.7-3.7,22.6-11.2,29.7s-17.6,10.7-30.5,10.7c-14.7,0-25.7-4.3-32.9-12.8c-7.2-8.5-10.7-20-10.7-34.6
		c0-14.5,3.6-26.1,10.7-34.6c7.2-8.5,18.1-12.8,32.9-12.8c12.9,0,23,3.6,30.5,10.7s11.2,17.1,11.2,29.7V779z"/>
	<rect x="263.9" y="819.5" class="st0" width="60.1" height="45.7"/>
	<path class="st0" d="M470.2,79.8V47.5h47.7V-0.9h-58.5c-15.9,0-28.2,3.9-36.8,11.8c-8.6,7.8-12.9,20.1-12.9,36.6v32.3h-90.8V47.5
		h47.7V-0.9h-58.5c-15.9,0-28.2,3.9-36.8,11.8c-8.6,7.8-12.9,20.1-12.9,36.6v32.3H116v0c-15,0.4-28.8,3-41.6,7.8
		C60.6,93,48.6,100.4,38.5,110c-10.1,9.6-18.1,20.9-23.8,33.7c-5.7,12.8-8.6,26.9-8.6,42c0,15.4,2.9,29.5,8.6,42.5
		c5.7,12.9,13.7,24.2,23.8,33.9c10.1,9.6,22.1,17.1,36.1,22.3c13.9,5.3,29,7.9,45.1,7.9c16.4,0,31.4-2.6,45.3-7.9
		c13.8-5.3,25.8-12.7,36.1-22.2c10.2-9.5,18.2-20.8,23.8-33.7c5.6-12.9,8.5-27.2,8.5-42.8c0-15.4-2.9-29.5-8.6-42.3
		c-2.4-5.4-5.2-10.4-8.4-15.2h41.5v172.2h61.9V128.2H409v172.2h61.9V128.2h135.7V79.8H470.2z M170.6,210.2
		c-2.8,7.1-6.7,13.2-11.7,18.4c-5,5.2-10.8,9.1-17.5,11.8c-6.7,2.7-14,4.1-21.8,4.1c-7.8,0-15-1.4-21.8-4.1
		c-6.7-2.7-12.6-6.7-17.7-11.8c-5.1-5.2-9-11.3-11.7-18.4c-2.7-7.1-4.1-15.1-4.1-24.1c0-9,1.4-17,4.1-24.1
		c2.7-7.1,6.6-13.2,11.7-18.4c5.1-5.2,11-9.1,17.7-11.8c5.7-2.3,11.7-3.6,18.1-4v0.4h11.8c4.8,0.6,9.3,1.8,13.6,3.6
		c6.7,2.7,12.6,6.7,17.5,11.8c5,5.2,8.9,11.3,11.7,18.4c2.8,7.1,4.2,15.1,4.2,24.1C174.8,195.1,173.4,203.1,170.6,210.2z"/>
</g>
<g>
	<path class="st0" d="M26.1,947.9c-3.7,0-6.9-0.7-9.6-2.2c-2.7-1.5-4.8-3.5-6.3-6.2s-2.2-5.8-2.2-9.5s0.7-6.8,2.2-9.4
		c1.4-2.6,3.5-4.7,6.2-6.1s5.8-2.1,9.5-2.1c3.6,0,6.6,0.7,9.2,2.1c2.6,1.4,4.5,3.3,5.9,5.9c1.4,2.5,2.1,5.6,2.1,9.1v3.2H17
		c0.4,2.5,1.3,4.5,2.9,5.8c1.6,1.3,3.6,2,6.2,2c2,0,3.6-0.3,4.8-1c1.2-0.7,2-1.7,2.5-3.1h9.5c-0.8,3.6-2.6,6.5-5.5,8.6
		C34.4,946.9,30.7,947.9,26.1,947.9z M17.2,926.3h16.7c-0.3-2.2-1.1-3.8-2.5-4.9c-1.4-1.1-3.2-1.6-5.5-1.6c-2.3,0-4.2,0.6-5.7,1.7
		C18.7,922.6,17.7,924.2,17.2,926.3z"/>
	<path class="st0" d="M55.3,947.3L40.6,913h10l9.6,23.3h0.2l9.3-23.3h9.8l-14.7,34.2H55.3z"/>
	<path class="st0" d="M95.4,947.9c-3.7,0-6.9-0.7-9.6-2.2c-2.7-1.5-4.8-3.5-6.3-6.2s-2.2-5.8-2.2-9.5s0.7-6.8,2.2-9.4
		c1.4-2.6,3.5-4.7,6.2-6.1s5.8-2.1,9.5-2.1c3.6,0,6.6,0.7,9.2,2.1c2.6,1.4,4.5,3.3,5.9,5.9c1.4,2.5,2.1,5.6,2.1,9.1v3.2H86.2
		c0.4,2.5,1.3,4.5,2.9,5.8c1.6,1.3,3.6,2,6.2,2c2,0,3.6-0.3,4.8-1c1.2-0.7,2-1.7,2.5-3.1h9.5c-0.8,3.6-2.6,6.5-5.5,8.6
		C103.6,946.9,99.9,947.9,95.4,947.9z M86.5,926.3h16.7c-0.3-2.2-1.1-3.8-2.5-4.9c-1.4-1.1-3.2-1.6-5.5-1.6c-2.3,0-4.2,0.6-5.7,1.7
		C87.9,922.6,87,924.2,86.5,926.3z"/>
	<path class="st0" d="M116.9,947.3v-24.9h-4.7V913h9.6v5.6h2.4c1.3-2,3-3.5,5-4.6c2-1.1,4.5-1.6,7.5-1.6c4.8,0,8.4,1.3,11,3.9
		c2.6,2.6,3.9,6.1,3.9,10.5v20.5h-9.5v-18.7c0-2.5-0.7-4.4-2-5.7c-1.4-1.3-3.3-2-5.9-2c-2.6,0-4.6,0.7-5.9,2c-1.4,1.3-2,3.2-2,5.7
		v18.7H116.9z"/>
	<path class="st0" d="M166.3,947.3c-2.4,0-4.3-0.6-5.7-1.9c-1.3-1.2-2-3.1-2-5.7v-19.3h-5.9V913h6v-10.3h9.2V913h7.9v7.4h-7.8v19.4
		h8.6v7.4H166.3z"/>
	<path class="st0" d="M193.6,947.3v-24.9H189V913h9.6v5.6h2.5c1.2-2,2.8-3.5,4.7-4.6c1.9-1.1,4.3-1.6,7.2-1.6c2.7,0,5.1,0.5,7,1.5
		c2,1,3.5,2.4,4.7,4.3h0.2c2.6-3.8,6.5-5.8,11.7-5.8c4.4,0,7.9,1.3,10.5,3.8c2.6,2.6,3.9,6,3.9,10.4v20.6h-9.5v-18.8
		c0-5.1-2.4-7.6-7.2-7.6c-4.8,0-7.2,2.5-7.2,7.6v18.8h-9.5v-18.8c0-5.1-2.5-7.6-7.4-7.6c-2.4,0-4.1,0.6-5.3,1.9
		c-1.2,1.3-1.8,3.2-1.8,5.8v18.8H193.6z"/>
	<path class="st0" d="M265.9,947.9c-4,0-7.2-1-9.5-2.9s-3.4-4.5-3.4-7.7c0-3.4,1.2-6,3.5-7.8c2.4-1.8,5.7-2.7,10.2-2.7h9.8v-1.3
		c0-3.7-2.2-5.5-6.6-5.5c-3.8,0-6.2,1.3-7,4h-9.4c0.8-3.8,2.5-6.6,5.3-8.6c2.8-1.9,6.5-2.9,11.1-2.9c5.1,0,9,1.1,11.7,3.4
		c2.7,2.3,4,5.6,4,10v12.1h4.4v9.4h-9.6v-5.6H278c-1.2,2-2.8,3.5-4.7,4.6C271.3,947.3,268.9,947.9,265.9,947.9z M267.3,940.7
		c1.8,0,3.4-0.3,4.7-1c1.4-0.6,2.5-1.5,3.3-2.6c0.8-1.1,1.2-2.3,1.2-3.7v-0.5h-9.4c-3.4,0-5.1,1.3-5.1,3.8c0,1.3,0.5,2.2,1.4,2.9
		C264.4,940.4,265.7,940.7,267.3,940.7z"/>
	<path class="st0" d="M293.2,947.3v-24.9h-4.7V913h9.6v5.6h2.4c1.3-2,3-3.5,5-4.6c2-1.1,4.5-1.6,7.5-1.6c4.8,0,8.4,1.3,11,3.9
		c2.6,2.6,3.9,6.1,3.9,10.5v20.5h-9.5v-18.7c0-2.5-0.7-4.4-2-5.7c-1.4-1.3-3.3-2-5.9-2c-2.6,0-4.6,0.7-5.9,2c-1.4,1.3-2,3.2-2,5.7
		v18.7H293.2z"/>
	<path class="st0" d="M342.9,947.9c-4,0-7.2-1-9.5-2.9s-3.4-4.5-3.4-7.7c0-3.4,1.2-6,3.5-7.8c2.4-1.8,5.7-2.7,10.2-2.7h9.8v-1.3
		c0-3.7-2.2-5.5-6.6-5.5c-3.8,0-6.2,1.3-7,4h-9.4c0.8-3.8,2.5-6.6,5.3-8.6c2.8-1.9,6.5-2.9,11.1-2.9c5.1,0,9,1.1,11.7,3.4
		c2.7,2.3,4,5.6,4,10v12.1h4.4v9.4h-9.6v-5.6H355c-1.2,2-2.8,3.5-4.7,4.6C348.3,947.3,345.8,947.9,342.9,947.9z M344.3,940.7
		c1.8,0,3.4-0.3,4.7-1c1.4-0.6,2.5-1.5,3.3-2.6c0.8-1.1,1.2-2.3,1.2-3.7v-0.5h-9.4c-3.4,0-5.1,1.3-5.1,3.8c0,1.3,0.5,2.2,1.4,2.9
		C341.4,940.4,342.7,940.7,344.3,940.7z"/>
	<path class="st0" d="M385.3,961.6c-5.1,0-9.3-1-12.5-3.1c-3.2-2.1-5.1-5-5.7-8.6h10c0.9,2.8,3.6,4.2,7.9,4.2c3,0,5.2-0.7,6.8-2
		c1.6-1.4,2.4-3.3,2.4-5.8v-4.6h-0.3c-1,1.8-2.4,3.2-4.2,4.2c-1.8,1-4,1.4-6.5,1.4c-3.2,0-6-0.7-8.4-2.1c-2.4-1.4-4.2-3.5-5.5-6.1
		c-1.3-2.6-2-5.7-2-9.2c0-5.3,1.5-9.6,4.4-12.7c2.9-3.2,7-4.7,12.1-4.7c2.9,0,5.4,0.6,7.4,1.7c2,1.1,3.7,2.6,4.9,4.6h2.4V913h9.6
		v9.4h-4.7v24c0,4.9-1.6,8.6-4.7,11.3C395.6,960.3,391.1,961.6,385.3,961.6z M385.5,939c2.6,0,4.7-0.7,6.2-2.2
		c1.5-1.4,2.2-3.4,2.2-5.9v-2.4c0-2.5-0.8-4.4-2.3-5.8c-1.5-1.4-3.5-2.1-6.1-2.1c-2.8,0-4.9,0.8-6.5,2.5s-2.3,3.9-2.3,6.8
		s0.8,5.2,2.3,6.8C380.6,938.3,382.8,939,385.5,939z"/>
	<path class="st0" d="M426.3,947.9c-3.7,0-6.9-0.7-9.6-2.2c-2.7-1.5-4.8-3.5-6.3-6.2c-1.5-2.7-2.2-5.8-2.2-9.5s0.7-6.8,2.2-9.4
		s3.5-4.7,6.2-6.1s5.8-2.1,9.5-2.1c3.6,0,6.6,0.7,9.2,2.1c2.6,1.4,4.5,3.3,5.9,5.9c1.4,2.5,2.1,5.6,2.1,9.1v3.2h-25.9
		c0.4,2.5,1.3,4.5,2.9,5.8c1.6,1.3,3.6,2,6.2,2c2,0,3.6-0.3,4.8-1s2-1.7,2.5-3.1h9.5c-0.8,3.6-2.6,6.5-5.5,8.6
		C434.5,946.9,430.8,947.9,426.3,947.9z M417.4,926.3H434c-0.3-2.2-1.1-3.8-2.5-4.9c-1.4-1.1-3.2-1.6-5.5-1.6
		c-2.3,0-4.2,0.6-5.7,1.7C418.8,922.6,417.9,924.2,417.4,926.3z"/>
	<path class="st0" d="M447.8,947.3v-24.9h-4.7V913h9.6v5.6h2.5c1.2-2,2.8-3.5,4.7-4.6c1.9-1.1,4.3-1.6,7.2-1.6c2.7,0,5.1,0.5,7,1.5
		c2,1,3.5,2.4,4.7,4.3h0.2c2.6-3.8,6.5-5.8,11.7-5.8c4.4,0,7.9,1.3,10.5,3.8c2.6,2.6,3.9,6,3.9,10.4v20.6h-9.5v-18.8
		c0-5.1-2.4-7.6-7.2-7.6c-4.8,0-7.2,2.5-7.2,7.6v18.8h-9.5v-18.8c0-5.1-2.5-7.6-7.4-7.6c-2.4,0-4.1,0.6-5.3,1.9
		c-1.2,1.3-1.8,3.2-1.8,5.8v18.8H447.8z"/>
	<path class="st0" d="M525.3,947.9c-3.7,0-6.9-0.7-9.6-2.2c-2.7-1.5-4.8-3.5-6.3-6.2c-1.5-2.7-2.2-5.8-2.2-9.5s0.7-6.8,2.2-9.4
		s3.5-4.7,6.2-6.1s5.8-2.1,9.5-2.1c3.6,0,6.6,0.7,9.2,2.1c2.6,1.4,4.5,3.3,5.9,5.9c1.4,2.5,2.1,5.6,2.1,9.1v3.2h-25.9
		c0.4,2.5,1.3,4.5,2.9,5.8c1.6,1.3,3.6,2,6.2,2c2,0,3.6-0.3,4.8-1s2-1.7,2.5-3.1h9.5c-0.8,3.6-2.6,6.5-5.5,8.6
		C533.5,946.9,529.8,947.9,525.3,947.9z M516.4,926.3H533c-0.3-2.2-1.1-3.8-2.5-4.9c-1.4-1.1-3.2-1.6-5.5-1.6
		c-2.3,0-4.2,0.6-5.7,1.7C517.8,922.6,516.9,924.2,516.4,926.3z"/>
	<path class="st0" d="M546.8,947.3v-24.9h-4.7V913h9.6v5.6h2.4c1.3-2,3-3.5,5-4.6c2-1.1,4.5-1.6,7.5-1.6c4.8,0,8.4,1.3,11,3.9
		c2.6,2.6,3.9,6.1,3.9,10.5v20.5h-9.5v-18.7c0-2.5-0.7-4.4-2-5.7c-1.3-1.3-3.3-2-5.9-2c-2.6,0-4.6,0.7-5.9,2c-1.3,1.3-2,3.2-2,5.7
		v18.7H546.8z"/>
	<path class="st0" d="M596.2,947.3c-2.4,0-4.3-0.6-5.7-1.9c-1.4-1.2-2-3.1-2-5.7v-19.3h-5.9V913h6v-10.3h9.2V913h7.9v7.4H598v19.4
		h8.6v7.4H596.2z"/>
</g>
</svg>
