<?xml version="1.0" encoding="utf-8"?>
<!-- Generator: Adobe Illustrator 24.0.1, SVG Export Plug-In . SVG Version: 6.00 Build 0)  -->
<svg version="1.1" id="Layer_1" xmlns="http://www.w3.org/2000/svg" xmlns:xlink="http://www.w3.org/1999/xlink" x="0px" y="0px"
	 viewBox="0 0 688.2 970.9" style="enable-background:new 0 0 688.2 970.9;" xml:space="preserve">
<style type="text/css">
	.st0{fill:#D4D4D4;}
</style>
<title>off-the-grid</title>
<title>off-the-grid</title>
<g>
	<g>
		<path class="st0" d="M271.6,365.5c13.3,0,25.3,3.1,36.1,9.3c10.8,6.2,19.3,15.6,25.5,28.2c6.2,12.6,9.3,28.9,9.3,48.8v110.5H282
			v-99.5c0-13.8-2.5-23.8-7.4-30.1c-5-6.3-11.7-9.4-20.1-9.4c-6.5,0-12.5,1.6-17.7,4.8c-5.3,3.2-9.4,8.1-12.3,14.8
			c-3,6.7-4.4,15.5-4.4,26.4v93h-60.1V297.8H220V424l-13.9-16c6.5-13.8,15.5-24.3,26.9-31.5C244.4,369.2,257.2,365.5,271.6,365.5z"
			/>
	</g>
</g>
<g>
	<path class="st0" d="M39.7,514.3c0,16.4,4.3,28.5,12.9,36.5c8.6,8,20.8,11.9,36.5,11.9h109v-48.4h-96.5V409.4h43.7V361h-44.4v-60.5
		H40.3V361H6.1v48.4h33.6V514.3z"/>
	<path class="st0" d="M334.9,590.8c-11.7,7.1-20.1,17.9-25.2,32.4h-14.1v-40.3h-41h-20.9h-41v33.6h-14.1
		c-7.2-11.9-16.9-21.1-29.1-27.7c-12.2-6.6-26.8-9.9-43.9-9.9c-30.7,0-54.8,9.3-72.1,27.9c-17.4,18.6-26.1,43.6-26.1,75
		c0,20.8,3.9,39,11.6,54.5c7.7,15.5,18.6,27.4,32.6,35.8c14,8.4,30.4,12.6,49.3,12.6c14.6,0,27-2.6,37.2-7.9
		c10.2-5.3,18.4-13.2,24.7-23.7h1.7v25.2c0,13.7-4.3,24.2-12.9,31.6c-8.6,7.4-21.1,11.1-37.5,11.1c-23.3,0-37.5-7.4-42.7-22.2H6.1
		c3.6,22.2,15.1,39.5,34.5,51.9c19.4,12.4,44.7,18.7,75.8,18.7c34.7,0,61.4-7.9,80-23.7c18.6-15.8,27.9-38.3,27.9-67.4V643.4h9.4
		h20.9h9.4v141.2h60.5V683.8c0-14.8,3.6-26.8,10.9-36c7.3-9.2,19.2-13.8,35.8-13.8H391v-53.8h-17.1
		C359.5,580.2,346.5,583.7,334.9,590.8z M162.4,686.4c0,13.9-4,24.8-12.1,32.6c-8.1,7.8-19.4,11.8-34,11.8c-15,0-26.6-4.2-34.8-12.6
		c-8.2-8.4-12.3-20.5-12.3-36.1c0-15.7,4.1-27.8,12.3-36.5c8.2-8.6,19.8-12.9,34.8-12.9c14.3,0,25.6,3.9,33.8,11.6
		c8.2,7.7,12.3,18.4,12.3,32.1V686.4z"/>
	<path class="st0" d="M658,724.1V502.2h-61.9v106.6h-1.3c-5.6-9.4-13.6-16.8-23.9-22c-10.3-5.3-22.6-7.9-37-7.9
		c-19.3,0-35.8,4.4-49.6,13.1c-10.5,6.7-19.1,15.4-25.8,26.2v-35.3h-61.9v201.7h61.9v-36.5c7,11.2,16.1,20.3,27.5,27.2
		c14.5,8.9,32.2,13.3,53.3,13.3c17,0,31.7-3.3,43.9-9.9c12.2-6.6,21.9-15.9,29.1-27.7h14.1v33.6h61.9v-60.5H658z M596.1,691.2
		c0,13.7-4,24.4-12.1,32.1s-19.1,11.6-33,11.6c-15.9,0-27.7-4.6-35.5-13.8c-7.7-9.2-11.6-21.6-11.6-37.3c0-15.7,3.9-28.1,11.6-37.3
		c7.7-9.2,19.6-13.8,35.5-13.8c13.9,0,24.9,3.9,33,11.6s12.1,18.4,12.1,32.1V691.2z"/>
	<path class="st0" d="M38.5,262.2c10.1,9.6,22.1,17.1,36.1,22.3c13.9,5.3,29,7.9,45.1,7.9c16.4,0,31.4-2.6,45.3-7.9
		c13.8-5.3,25.8-12.7,36.1-22.2c10.2-9.5,18.2-20.8,23.8-33.7c5.6-12.9,8.5-27.2,8.5-42.8c0-15.4-2.9-29.5-8.6-42.3
		c-2.4-5.4-5.2-10.4-8.4-15.2h41.5v216.7h61.9V128.2H409v216.7h61.9V128.2h84.4V79.8h-85.1V47.5h47.7V-0.9h-58.5
		c-15.9,0-28.2,3.9-36.8,11.8c-8.6,7.8-12.9,20.1-12.9,36.6v32.3h-90.8V47.5h47.7V-0.9h-58.5c-15.9,0-28.2,3.9-36.8,11.8
		c-8.6,7.8-12.9,20.1-12.9,36.6v32.3H116v0c-15,0.4-28.8,3-41.6,7.8C60.6,93,48.6,100.4,38.5,110c-10.1,9.6-18.1,20.9-23.8,33.7
		c-5.7,12.8-8.6,26.9-8.6,42c0,15.4,2.9,29.5,8.6,42.5C20.4,241.2,28.3,252.5,38.5,262.2z M68.5,162c2.7-7.1,6.6-13.2,11.7-18.4
		c5.1-5.2,11-9.1,17.7-11.8c5.7-2.3,11.7-3.6,18.1-4v0.4h11.8c4.8,0.6,9.3,1.8,13.6,3.6c6.7,2.7,12.6,6.7,17.5,11.8
		c5,5.2,8.9,11.3,11.7,18.4c2.8,7.1,4.2,15.1,4.2,24.1c0,9-1.4,17-4.2,24.1c-2.8,7.1-6.7,13.2-11.7,18.4c-5,5.2-10.8,9.1-17.5,11.8
		c-6.7,2.7-14,4.1-21.8,4.1c-7.8,0-15-1.4-21.8-4.1c-6.7-2.7-12.6-6.7-17.7-11.8c-5.1-5.2-9-11.3-11.7-18.4
		c-2.7-7.1-4.1-15.1-4.1-24.1C64.5,177.2,65.8,169.1,68.5,162z"/>
	<path class="st0" d="M458.5,571.4v-55.6c-0.1,0-0.2,0-0.3,0c-10.5,0-19.6-2-27.2-5.9c-7.6-4-13.4-9.6-17.5-17.1
		c-1.7-3.2-3.1-6.6-4.1-10.3h144.7c0.2-2.8,0.5-5.9,0.7-9.2c0.2-3.3,0.4-6.3,0.4-8.8c0-23-4.8-42.5-14.5-58.5
		c-9.7-16-22.6-28.2-38.6-36.8c-16.1-8.6-33.9-12.8-53.5-12.8c-21.1,0-39.9,4.6-56.4,13.8c-16.5,9.2-29.5,21.9-39,38.1
		c-9.4,16.2-14.2,34.8-14.2,55.8c0,20.4,4.8,38.8,14.5,55c9.7,16.2,23.3,29,40.8,38.3c17.5,9.3,38.2,14,61.9,14
		C457.1,571.4,457.8,571.4,458.5,571.4z M412.4,430.5c3.3-7,8.1-12.5,14.5-16.3c6.4-3.8,13.8-5.7,22.4-5.7c8.3,0,15.6,1.9,21.7,5.7
		c6.1,3.8,11,9.3,14.5,16.3c2.1,4.2,3.5,8.7,4.3,13.6h-81.5C409.1,439.2,410.5,434.7,412.4,430.5z"/>
</g>
<g>
	<path class="st0" d="M20.5,958.6c-2.7,0-5.1-0.5-7.1-1.6c-2-1.1-3.6-2.6-4.7-4.5S7,948.2,7,945.5c0-2.7,0.5-5,1.6-6.9
		c1.1-1.9,2.6-3.4,4.6-4.5c2-1,4.3-1.6,7-1.6c2.6,0,4.9,0.5,6.8,1.5c1.9,1,3.3,2.4,4.4,4.3c1,1.9,1.5,4.1,1.5,6.7v2.3H13.7
		c0.3,1.9,1,3.3,2.1,4.3c1.1,1,2.7,1.5,4.5,1.5c1.5,0,2.7-0.3,3.5-0.8c0.9-0.5,1.5-1.3,1.9-2.3h7c-0.6,2.7-1.9,4.8-4.1,6.3
		C26.6,957.9,23.8,958.6,20.5,958.6z M13.9,942.8h12.3c-0.2-1.6-0.8-2.8-1.9-3.6c-1-0.8-2.4-1.2-4.1-1.2c-1.7,0-3.1,0.4-4.2,1.2
		C15,940.1,14.3,941.3,13.9,942.8z"/>
	<path class="st0" d="M42,958.1l-10.8-25h7.4l7.1,17h0.2l6.9-17h7.2l-10.8,25H42z"/>
	<path class="st0" d="M71.5,958.6c-2.7,0-5.1-0.5-7.1-1.6c-2-1.1-3.6-2.6-4.7-4.5s-1.6-4.3-1.6-6.9c0-2.7,0.5-5,1.6-6.9
		c1.1-1.9,2.6-3.4,4.6-4.5c2-1,4.3-1.6,7-1.6c2.6,0,4.9,0.5,6.8,1.5c1.9,1,3.3,2.4,4.4,4.3c1,1.9,1.5,4.1,1.5,6.7v2.3H64.8
		c0.3,1.9,1,3.3,2.1,4.3c1.1,1,2.7,1.5,4.5,1.5c1.5,0,2.7-0.3,3.5-0.8c0.9-0.5,1.5-1.3,1.9-2.3h7c-0.6,2.7-1.9,4.8-4.1,6.3
		C77.6,957.9,74.9,958.6,71.5,958.6z M65,942.8h12.3c-0.2-1.6-0.8-2.8-1.9-3.6c-1-0.8-2.4-1.2-4.1-1.2c-1.7,0-3.1,0.4-4.2,1.2
		C66.1,940.1,65.3,941.3,65,942.8z"/>
	<path class="st0" d="M87.4,958.1V940H84v-6.8H91v4.1h1.8c1-1.4,2.2-2.6,3.7-3.4c1.5-0.8,3.3-1.2,5.6-1.2c3.5,0,6.2,1,8.1,2.9
		c1.9,1.9,2.9,4.5,2.9,7.7v15h-7v-13.7c0-1.8-0.5-3.2-1.5-4.2c-1-1-2.4-1.4-4.4-1.4c-1.9,0-3.4,0.5-4.4,1.4c-1,1-1.5,2.4-1.5,4.2
		v13.7H87.4z"/>
	<path class="st0" d="M123.9,958.1c-1.8,0-3.2-0.5-4.2-1.4c-1-0.9-1.5-2.3-1.5-4.1v-14.1h-4.3v-5.4h4.4v-7.5h6.8v7.5h5.8v5.4h-5.8
		v14.2h6.4v5.4H123.9z"/>
	<path class="st0" d="M140.2,958.8l12.5-35.2h6.3l-12.5,35.2H140.2z"/>
	<path class="st0" d="M181.3,958.6c-2.6,0-4.9-0.5-6.9-1.6c-2-1.1-3.5-2.6-4.6-4.5c-1.1-1.9-1.7-4.2-1.7-6.9c0-2.6,0.5-4.9,1.6-6.9
		c1.1-1.9,2.6-3.5,4.6-4.5c2-1.1,4.3-1.6,6.9-1.6c3.3,0,6.1,0.8,8.2,2.5c2.2,1.7,3.5,4,4.1,6.9h-7c-0.4-1.1-1-1.9-1.9-2.5
		c-0.9-0.6-2-0.9-3.4-0.9c-1.9,0-3.4,0.6-4.5,1.8c-1.1,1.2-1.7,2.9-1.7,5.2c0,2.2,0.6,3.9,1.7,5.2c1.2,1.2,2.7,1.8,4.5,1.8
		c3,0,4.8-1.3,5.4-3.8h7c-0.5,3.1-1.8,5.4-4,7.2C187.6,957.8,184.8,958.6,181.3,958.6z"/>
	<path class="st0" d="M196.5,958.1V940h-3.4v-6.8h7.1v4.9h1.8c0.7-1.8,1.7-3.1,3.2-3.9c1.5-0.9,3.1-1.3,4.9-1.3h2.1v6h-2.4
		c-2.2,0-3.8,0.6-4.8,1.8c-1,1.2-1.5,2.8-1.5,4.8v12.6H196.5z"/>
	<path class="st0" d="M224.2,958.6c-2.7,0-5.1-0.5-7.1-1.6c-2-1.1-3.6-2.6-4.7-4.5c-1.1-2-1.6-4.3-1.6-6.9c0-2.7,0.5-5,1.6-6.9
		c1.1-1.9,2.6-3.4,4.6-4.5c2-1,4.3-1.6,7-1.6c2.6,0,4.9,0.5,6.8,1.5c1.9,1,3.3,2.4,4.4,4.3c1,1.9,1.5,4.1,1.5,6.7v2.3h-19.1
		c0.3,1.9,1,3.3,2.1,4.3c1.1,1,2.7,1.5,4.5,1.5c1.5,0,2.7-0.3,3.5-0.8c0.9-0.5,1.5-1.3,1.9-2.3h7c-0.6,2.7-1.9,4.8-4.1,6.3
		C230.3,957.9,227.5,958.6,224.2,958.6z M217.6,942.8h12.3c-0.2-1.6-0.8-2.8-1.9-3.6c-1-0.8-2.4-1.2-4.1-1.2c-1.7,0-3.1,0.4-4.2,1.2
		C218.7,940.1,218,941.3,217.6,942.8z"/>
	<path class="st0" d="M246.4,958.6c-3,0-5.3-0.7-7-2.1c-1.7-1.4-2.5-3.3-2.5-5.6c0-2.5,0.9-4.4,2.6-5.7c1.7-1.3,4.2-2,7.5-2h7.2v-1
		c0-2.7-1.6-4-4.9-4c-2.8,0-4.5,1-5.1,2.9h-6.9c0.6-2.8,1.9-4.8,3.9-6.3c2-1.4,4.8-2.1,8.2-2.1c3.8,0,6.6,0.8,8.6,2.5
		c2,1.7,3,4.1,3,7.3v8.9h3.3v6.8h-7.1V954h-1.8c-0.9,1.4-2,2.6-3.5,3.4C250.4,958.2,248.6,958.6,246.4,958.6z M247.5,953.3
		c1.3,0,2.5-0.2,3.5-0.7c1-0.5,1.8-1.1,2.4-1.9c0.6-0.8,0.9-1.7,0.9-2.7v-0.4h-6.9c-2.5,0-3.8,0.9-3.8,2.8c0,0.9,0.4,1.6,1.1,2.1
		C245.3,953.1,246.3,953.3,247.5,953.3z"/>
	<path class="st0" d="M273.6,958.1c-1.8,0-3.2-0.5-4.2-1.4c-1-0.9-1.5-2.3-1.5-4.1v-14.1h-4.3v-5.4h4.4v-7.5h6.8v7.5h5.8v5.4h-5.8
		v14.2h6.4v5.4H273.6z"/>
	<path class="st0" d="M286.1,930.7c-1.1,0-2-0.4-2.7-1.1c-0.7-0.7-1.1-1.6-1.1-2.7c0-1.1,0.4-2,1.1-2.7c0.7-0.7,1.6-1.1,2.7-1.1
		c1.1,0,2,0.4,2.7,1.1c0.7,0.7,1.1,1.6,1.1,2.7c0,1.1-0.4,2-1.1,2.7C288.1,930.3,287.2,930.7,286.1,930.7z M282.6,958.1v-25h7v25
		H282.6z"/>
	<path class="st0" d="M301.1,958.1l-10.8-25h7.4l7.1,17h0.2l6.9-17h7.2l-10.8,25H301.1z"/>
	<path class="st0" d="M330.6,958.6c-2.7,0-5.1-0.5-7.1-1.6c-2-1.1-3.6-2.6-4.7-4.5s-1.6-4.3-1.6-6.9c0-2.7,0.5-5,1.6-6.9
		c1.1-1.9,2.6-3.4,4.6-4.5c2-1,4.3-1.6,7-1.6c2.6,0,4.9,0.5,6.8,1.5c1.9,1,3.3,2.4,4.4,4.3c1,1.9,1.5,4.1,1.5,6.7v2.3h-19.1
		c0.3,1.9,1,3.3,2.1,4.3c1.1,1,2.7,1.5,4.5,1.5c1.5,0,2.7-0.3,3.5-0.8c0.9-0.5,1.5-1.3,1.9-2.3h7c-0.6,2.7-1.9,4.8-4.1,6.3
		C336.7,957.9,334,958.6,330.6,958.6z M324.1,942.8h12.3c-0.2-1.6-0.8-2.8-1.9-3.6c-1-0.8-2.4-1.2-4.1-1.2c-1.7,0-3.1,0.4-4.2,1.2
		C325.2,940.1,324.4,941.3,324.1,942.8z"/>
	<path class="st0" d="M352.1,958.8l12.5-35.2h6.3l-12.5,35.2H352.1z"/>
	<path class="st0" d="M383.2,958.1V940h-3.5v-6.8h7.1v4.1h1.9c0.9-1.4,2.1-2.6,3.5-3.4c1.4-0.8,3.2-1.2,5.3-1.2c2,0,3.8,0.4,5.2,1.1
		c1.4,0.7,2.6,1.8,3.5,3.1h0.2c1.9-2.8,4.8-4.2,8.6-4.2c3.3,0,5.8,0.9,7.7,2.8c1.9,1.9,2.9,4.4,2.9,7.6v15.1h-7v-13.7
		c0-3.7-1.8-5.6-5.3-5.6c-3.6,0-5.3,1.9-5.3,5.6v13.7h-7v-13.7c0-3.7-1.8-5.6-5.4-5.6c-1.7,0-3.1,0.5-3.9,1.4
		c-0.9,0.9-1.3,2.3-1.3,4.2v13.7H383.2z"/>
	<path class="st0" d="M436.5,958.6c-3,0-5.3-0.7-7-2.1c-1.7-1.4-2.5-3.3-2.5-5.6c0-2.5,0.9-4.4,2.6-5.7c1.7-1.3,4.2-2,7.5-2h7.2v-1
		c0-2.7-1.6-4-4.9-4c-2.8,0-4.5,1-5.1,2.9h-6.9c0.6-2.8,1.9-4.8,3.9-6.3c2-1.4,4.8-2.1,8.2-2.1c3.8,0,6.6,0.8,8.6,2.5
		c2,1.7,3,4.1,3,7.3v8.9h3.3v6.8h-7.1V954h-1.8c-0.9,1.4-2,2.6-3.5,3.4C440.5,958.2,438.7,958.6,436.5,958.6z M437.6,953.3
		c1.3,0,2.5-0.2,3.5-0.7c1-0.5,1.8-1.1,2.4-1.9c0.6-0.8,0.9-1.7,0.9-2.7v-0.4h-6.9c-2.5,0-3.8,0.9-3.8,2.8c0,0.9,0.4,1.6,1.1,2.1
		C435.4,953.1,436.4,953.3,437.6,953.3z"/>
	<path class="st0" d="M456.7,958.1V940h-3.4v-6.8h7.1v4.1h1.8c1-1.4,2.2-2.6,3.7-3.4c1.5-0.8,3.3-1.2,5.6-1.2c3.5,0,6.2,1,8.1,2.9
		c1.9,1.9,2.9,4.5,2.9,7.7v15h-7v-13.7c0-1.8-0.5-3.2-1.5-4.2c-1-1-2.4-1.4-4.4-1.4s-3.4,0.5-4.4,1.4c-1,1-1.5,2.4-1.5,4.2v13.7
		H456.7z"/>
	<path class="st0" d="M493.3,958.6c-3,0-5.3-0.7-7-2.1c-1.7-1.4-2.5-3.3-2.5-5.6c0-2.5,0.9-4.4,2.6-5.7c1.7-1.3,4.2-2,7.5-2h7.2v-1
		c0-2.7-1.6-4-4.9-4c-2.8,0-4.5,1-5.1,2.9h-6.9c0.6-2.8,1.9-4.8,3.9-6.3c2-1.4,4.8-2.1,8.2-2.1c3.8,0,6.6,0.8,8.6,2.5
		c2,1.7,3,4.1,3,7.3v8.9h3.3v6.8H504V954h-1.8c-0.9,1.4-2,2.6-3.5,3.4C497.3,958.2,495.5,958.6,493.3,958.6z M494.4,953.3
		c1.3,0,2.5-0.2,3.5-0.7c1-0.5,1.8-1.1,2.4-1.9c0.6-0.8,0.9-1.7,0.9-2.7v-0.4h-6.9c-2.5,0-3.8,0.9-3.8,2.8c0,0.9,0.4,1.6,1.1,2.1
		C492.2,953.1,493.2,953.3,494.4,953.3z"/>
	<path class="st0" d="M524.6,968.6c-3.8,0-6.9-0.8-9.2-2.3c-2.4-1.5-3.8-3.6-4.2-6.3h7.4c0.7,2.1,2.6,3.1,5.8,3.1
		c2.2,0,3.9-0.5,5-1.5c1.2-1,1.7-2.4,1.7-4.3V954H531c-0.8,1.3-1.8,2.3-3.1,3c-1.3,0.7-2.9,1-4.8,1c-2.4,0-4.5-0.5-6.2-1.6
		c-1.8-1-3.1-2.5-4.1-4.4c-1-1.9-1.5-4.2-1.5-6.8c0-3.9,1.1-7,3.3-9.3c2.2-2.3,5.2-3.5,8.9-3.5c2.1,0,3.9,0.4,5.4,1.2
		c1.5,0.8,2.7,1.9,3.6,3.4h1.8v-4.1h7.1v6.8h-3.5v17.5c0,3.6-1.2,6.3-3.4,8.3C532.2,967.7,528.9,968.6,524.6,968.6z M524.8,952.1
		c1.9,0,3.4-0.5,4.5-1.6c1.1-1.1,1.6-2.5,1.6-4.3v-1.8c0-1.8-0.6-3.2-1.7-4.3c-1.1-1-2.6-1.6-4.5-1.6c-2,0-3.6,0.6-4.8,1.8
		c-1.1,1.2-1.7,2.9-1.7,5c0,2.1,0.6,3.8,1.7,5C521.1,951.5,522.7,952.1,524.8,952.1z"/>
	<path class="st0" d="M554.8,958.6c-2.7,0-5.1-0.5-7.1-1.6c-2-1.1-3.6-2.6-4.7-4.5c-1.1-2-1.6-4.3-1.6-6.9c0-2.7,0.5-5,1.6-6.9
		c1.1-1.9,2.6-3.4,4.6-4.5c2-1,4.3-1.6,7-1.6c2.6,0,4.9,0.5,6.8,1.5c1.9,1,3.3,2.4,4.4,4.3c1,1.9,1.5,4.1,1.5,6.7v2.3h-19.1
		c0.3,1.9,1,3.3,2.1,4.3c1.2,1,2.7,1.5,4.5,1.5c1.5,0,2.7-0.3,3.5-0.8c0.9-0.5,1.5-1.3,1.9-2.3h7c-0.6,2.7-1.9,4.8-4.1,6.3
		C560.9,957.9,558.2,958.6,554.8,958.6z M548.3,942.8h12.3c-0.2-1.6-0.8-2.8-1.9-3.6c-1-0.8-2.4-1.2-4.1-1.2c-1.7,0-3.1,0.4-4.2,1.2
		C549.3,940.1,548.6,941.3,548.3,942.8z"/>
	<path class="st0" d="M570.7,958.1V940h-3.4v-6.8h7.1v4.1h1.9c0.9-1.4,2.1-2.6,3.5-3.4c1.4-0.8,3.2-1.2,5.3-1.2c2,0,3.8,0.4,5.2,1.1
		c1.4,0.7,2.6,1.8,3.5,3.1h0.2c1.9-2.8,4.8-4.2,8.6-4.2c3.3,0,5.8,0.9,7.7,2.8c1.9,1.9,2.9,4.4,2.9,7.6v15.1h-7v-13.7
		c0-3.7-1.8-5.6-5.3-5.6c-3.6,0-5.3,1.9-5.3,5.6v13.7h-7v-13.7c0-3.7-1.8-5.6-5.4-5.6c-1.7,0-3.1,0.5-3.9,1.4
		c-0.9,0.9-1.3,2.3-1.3,4.2v13.7H570.7z"/>
	<path class="st0" d="M627.9,958.6c-2.7,0-5.1-0.5-7.1-1.6c-2-1.1-3.6-2.6-4.7-4.5c-1.1-2-1.6-4.3-1.6-6.9c0-2.7,0.5-5,1.6-6.9
		c1.1-1.9,2.6-3.4,4.6-4.5c2-1,4.3-1.6,7-1.6c2.6,0,4.9,0.5,6.8,1.5c1.9,1,3.3,2.4,4.4,4.3c1,1.9,1.5,4.1,1.5,6.7v2.3h-19.1
		c0.3,1.9,1,3.3,2.1,4.3c1.2,1,2.7,1.5,4.5,1.5c1.5,0,2.7-0.3,3.5-0.8c0.9-0.5,1.5-1.3,1.9-2.3h7c-0.6,2.7-1.9,4.8-4.1,6.3
		C633.9,957.9,631.2,958.6,627.9,958.6z M621.3,942.8h12.3c-0.2-1.6-0.8-2.8-1.9-3.6c-1-0.8-2.4-1.2-4.1-1.2c-1.7,0-3.1,0.4-4.2,1.2
		C622.4,940.1,621.7,941.3,621.3,942.8z"/>
	<path class="st0" d="M643.7,958.1V940h-3.4v-6.8h7.1v4.1h1.8c1-1.4,2.2-2.6,3.7-3.4c1.5-0.8,3.3-1.2,5.6-1.2c3.5,0,6.2,1,8.1,2.9
		c1.9,1.9,2.9,4.5,2.9,7.7v15h-7v-13.7c0-1.8-0.5-3.2-1.5-4.2c-1-1-2.4-1.4-4.4-1.4s-3.4,0.5-4.4,1.4c-1,1-1.5,2.4-1.5,4.2v13.7
		H643.7z"/>
	<path class="st0" d="M680.2,958.1c-1.8,0-3.2-0.5-4.2-1.4c-1-0.9-1.5-2.3-1.5-4.1v-14.1h-4.3v-5.4h4.4v-7.5h6.8v7.5h5.8v5.4h-5.8
		v14.2h6.4v5.4H680.2z"/>
</g>
</svg>
