<?xml version="1.0" encoding="utf-8"?>
<!-- Generator: Adobe Illustrator 24.0.1, SVG Export Plug-In . SVG Version: 6.00 Build 0)  -->
<svg version="1.1" id="Layer_1" xmlns="http://www.w3.org/2000/svg" xmlns:xlink="http://www.w3.org/1999/xlink" x="0px" y="0px"
	 viewBox="0 0 801.5 871.6" style="enable-background:new 0 0 801.5 871.6;" xml:space="preserve">
<style type="text/css">
	.st0{fill:none;stroke:#EDEDED;stroke-width:3;stroke-miterlimit:10;}
	.st1{fill:#EDEDED;}
</style>
<title>off-the-grid</title>
<g>
	<path class="st0" d="M372.4,777.9V666.3c0-16.4,4-29.6,12.1-39.8c8-10.2,21.2-15.2,39.6-15.2H446v-59.5H427
		c-15.9,0-30.2,3.9-43.1,11.7c-12.9,7.8-22.2,19.8-27.9,35.9h-15.6v-44.6H276h-3.9h-64.5v37.2H192c-7.9-13.1-18.6-23.4-32.1-30.7
		c-13.5-7.3-29.7-11-48.5-11c-33.9,0-60.5,10.3-79.7,30.9C12.5,601.7,3,629.4,3,664.1c0,23.1,4.3,43.1,12.8,60.3
		c8.5,17.1,20.6,30.3,36,39.6c15.5,9.3,33.6,13.9,54.4,13.9c16.1,0,29.8-2.9,41-8.7c11.3-5.8,20.4-14.6,27.3-26.2h1.9v27.9
		c0,15.1-4.8,26.8-14.3,35c-9.5,8.2-23.3,12.3-41.4,12.3c-25.8,0-41.5-8.2-47.2-24.5H1.5c4,24.5,16.7,43.7,38.1,57.5
		c21.4,13.8,49.3,20.6,83.8,20.6c38.4,0,67.9-8.7,88.4-26.2c20.6-17.5,30.8-42.3,30.8-74.6V621.7h29.6h3.9h29.6v156.2 M174.2,669.3
		c0,15.4-4.5,27.4-13.4,36.1c-8.9,8.7-21.4,13-37.5,13c-16.6,0-29.4-4.6-38.4-13.9c-9-9.3-13.6-22.6-13.6-40
		c0-17.4,4.5-30.8,13.6-40.4c9-9.5,21.9-14.3,38.4-14.3c15.8,0,28.3,4.3,37.3,12.8c9,8.6,13.6,20.4,13.6,35.5V669.3z"/>
	<polyline class="st0" points="521.2,777.9 521.2,554.8 452.9,554.8 452.9,777.9 	"/>
	<path class="st0" d="M801,711h-32.9V465.5h-68.4v117.9h-1.5c-6.2-10.4-15-18.5-26.4-24.4c-11.4-5.8-25-8.7-40.9-8.7
		c-21.3,0-39.6,4.8-54.8,14.5c-15.2,9.7-26.8,23.2-34.7,40.7c-7.9,17.5-11.9,37.8-11.9,60.8c0,22.8,4.1,43,12.3,60.4
		c8.2,17.5,20.2,31.1,36.2,40.9c16,9.8,35.6,14.7,58.9,14.7c18.8,0,35-3.7,48.5-11c13.5-7.3,24.2-17.5,32.1-30.7h15.6v37.2H801
		 M699.8,674.5c0,15.1-4.5,27-13.4,35.5c-8.9,8.6-21.1,12.8-36.4,12.8c-17.6,0-30.6-5.1-39.2-15.2c-8.5-10.2-12.8-23.9-12.8-41.3
		c0-17.4,4.3-31.1,12.8-41.3c8.5-10.2,21.6-15.2,39.2-15.2c15.4,0,27.5,4.3,36.4,12.8c8.9,8.6,13.4,20.4,13.4,35.5V674.5z"/>
	<g>
		<path class="st1" d="M402.4,480.3c6.3,0,11.7,1.2,16.2,3.5c4.4,2.3,7.7,5.6,10,9.9c2.3,4.4,3.5,9.7,3.5,15.9v3.3h-44.6h-3.6
			l0.7,3.6c0.9,4.8,3,8.6,6.2,11.1c3.2,2.5,7.3,3.8,12.3,3.8c4,0,7.2-0.7,9.6-2c2-1.1,3.6-2.8,4.7-4.9h13.8
			c-1.6,4.5-4.3,8.1-8.3,10.9c-5.1,3.6-11.7,5.4-19.7,5.4c-6.5,0-12.2-1.3-16.9-3.8c-4.6-2.4-8.3-6-10.8-10.4
			c-2.5-4.5-3.8-10-3.8-16.3c0-6.3,1.3-11.7,3.7-16.2c2.5-4.5,5.9-7.8,10.5-10.2C390.5,481.5,396,480.3,402.4,480.3 M383.9,506.2
			h3.9h28.6h3.6l-0.6-3.5c-0.8-4.3-2.6-7.6-5.6-9.8c-2.8-2.1-6.6-3.2-11.2-3.2c-4.5,0-8.3,1.1-11.3,3.2c-3.1,2.2-5.2,5.4-6.3,9.6
			L383.9,506.2 M402.4,477.3c-6.9,0-12.9,1.3-18,4c-5.1,2.7-9,6.5-11.7,11.4c-2.7,4.9-4.1,10.8-4.1,17.6c0,6.8,1.4,12.7,4.2,17.7
			c2.8,5,6.8,8.9,12,11.6c5.2,2.7,11.3,4.1,18.3,4.1c8.7,0,15.8-2,21.4-5.9c5.6-3.9,9.1-9.4,10.4-16.4h-19.6
			c-0.9,2.4-2.3,4.2-4.2,5.3c-2,1.1-4.7,1.7-8.2,1.7c-4.3,0-7.8-1-10.4-3.1c-2.6-2.1-4.3-5.2-5.1-9.3h47.6v-6.3
			c0-6.7-1.3-12.5-3.9-17.4c-2.6-4.8-6.3-8.5-11.2-11.1C415.1,478.6,409.2,477.3,402.4,477.3L402.4,477.3z M387.8,503.2
			c0.9-3.5,2.6-6.1,5.1-7.9c2.5-1.8,5.7-2.7,9.6-2.7c4,0,7.1,0.9,9.4,2.6c2.3,1.7,3.8,4.4,4.4,7.9H387.8L387.8,503.2z"/>
	</g>
	<g>
		<path class="st1" d="M614.4,468.5v72.3H455.9v-72.3H614.4 M617.4,465.5H452.9v78.3h164.5V465.5L617.4,465.5z"/>
	</g>
	<path class="st0" d="M801.5,15h-10.4h-68.6h-24.7c-25.4,0-45,6.3-58.7,18.8c-13.8,12.5-20.7,32-20.7,58.5v51.5l-167.1,0V92.2h92.9
		v0h10.4V15h-59.3v0h-44.4c-25.4,0-45,6.3-58.7,18.8c-13.8,12.5-20.7,32-20.7,58.5v51.5H194v0.4c-6.2-0.5-12.5-0.7-18.9-0.7
		c-33.8,0-63.8,7-90.3,20.9c-26.4,13.9-47.2,33.2-62.3,57.7C7.5,246.5,0,274.6,0,306.4c0,31.4,7.5,59.4,22.6,83.9
		c15.1,24.5,35.8,43.8,62.3,58c26.4,14.1,56.5,21.2,90.3,21.2c31.9,0,60.5-6.2,85.9-18.5v27.6h-10.9v15.3h10.7v33.2
		c0,5.2,1.4,9,4.1,11.6c2.7,2.5,6.6,3.8,11.6,3.8H299h19.3h0.3v-34.2c0-4.4,1.2-7.7,3.5-10c2.3-2.3,5.7-3.4,10.2-3.4
		s7.9,1.1,10.2,3.4c2.3,2.3,3.5,5.6,3.5,10v34.2h19.6v-38c0-8.2-2.3-14.8-7-19.7c-4.7-4.9-11-7.3-19.1-7.3c-4.8,0-8.8,0.8-12.2,2.5
		c-3.4,1.7-6.1,4.1-8.1,7.4h-0.4v-82.1c3.7-4.7,7.1-9.5,10.3-14.6c15.1-24.3,22.6-52.4,22.6-84.2c0-31.8-7.5-59.9-22.6-84.5
		c-0.2-0.3-0.4-0.7-0.7-1h42.2v244.5h81.9V220.9l165,0v244.5h82.5V220.9h101.8 M801.5,143.7H698.7V92.2h23.8h68.6h10.4 M246.3,353.5
		c-7.4,13.3-17.1,23.5-29.2,30.3c-12.1,6.9-26.1,10.3-42,10.3c-15.1,0-28.8-3.4-41.1-10.3c-12.3-6.9-22.1-17-29.5-30.3
		c-7.4-13.3-11-29-11-47.1c0-18.4,3.7-34.1,11-47.1c7.3-12.9,17.2-22.9,29.5-29.7c12.3-6.9,26.2-10.3,41.7-10.3
		c15.5,0,29.3,3.4,41.4,10.3c12.1,6.9,21.8,16.8,29.2,29.7c7.3,12.9,11,28.6,11,47.1C257.4,324.5,253.7,340.2,246.3,353.5z
		 M299,527.1h-18.5v-33.2h8.7v-15.3h-9v-38.5c6.7-4.4,12.9-9.1,18.7-14.2V527.1z"/>
</g>
<title>off-the-grid</title>
</svg>
